<svg width="2389" height="765" xmlns="http://www.w3.org/2000/svg" xmlns:xlink="http://www.w3.org/1999/xlink"><defs><linearGradient x1="45.614%" y1="-2.833%" x2="13.272%" y2="100%" id="a"><stop stop-color="#FFF" stop-opacity=".64" offset="0%"/><stop stop-color="#FFF" stop-opacity="0" offset="100%"/></linearGradient><filter x="-.9%" y="-.3%" width="101.9%" height="100.7%" filterUnits="objectBoundingBox" id="b"><feGaussianBlur stdDeviation="-0.5 -6.123234e-17" in="SourceGraphic"/></filter><circle id="c" cx="48" cy="48" r="48"/><filter x="0%" y="0%" width="100%" height="100%" filterUnits="objectBoundingBox" id="d"><feGaussianBlur in="SourceGraphic"/></filter><filter x="-16.7%" y="-16.7%" width="133.3%" height="133.3%" filterUnits="objectBoundingBox" id="e"><feGaussianBlur stdDeviation="16" in="SourceAlpha" result="shadowBlurInner1"/><feOffset in="shadowBlurInner1" result="shadowOffsetInner1"/><feComposite in="shadowOffsetInner1" in2="SourceAlpha" operator="arithmetic" k2="-1" k3="1" result="shadowInnerInner1"/><feColorMatrix values="0 0 0 0 0.2 0 0 0 0 0.505882353 0 0 0 0 1 0 0 0 1 0" in="shadowInnerInner1"/></filter><radialGradient cx="48.392%" cy="0%" fx="48.392%" fy="0%" r="117.062%" gradientTransform="scale(-1 -.84319) rotate(-86.229 0 .517)" id="f"><stop stop-color="#0062FF" stop-opacity="0" offset="0%"/><stop stop-color="#0062FF" stop-opacity=".32" offset="68.708%"/><stop stop-color="#00C2BE" offset="100%"/></radialGradient><filter x="0%" y="0%" width="100%" height="100%" filterUnits="objectBoundingBox" id="g"><feGaussianBlur in="SourceGraphic"/></filter><radialGradient cx="47.914%" cy=".603%" fx="47.914%" fy=".603%" r="110.819%" gradientTransform="scale(-1 -.84319) rotate(-56.212 -.012 .897)" id="h"><stop stop-color="#0062FF" offset="0%"/><stop stop-color="#18E2CC" offset="36.832%"/><stop stop-color="#18E2CC" stop-opacity="0" offset="66.454%"/><stop stop-color="#18AAE2" stop-opacity=".24" offset="100%"/></radialGradient><filter x="0%" y="0%" width="100%" height="100%" filterUnits="objectBoundingBox" id="i"><feGaussianBlur in="SourceGraphic"/></filter><radialGradient cx="52.101%" cy="-25.108%" fx="52.101%" fy="-25.108%" r="112.467%" id="k"><stop stop-color="#18AAE2" stop-opacity=".24" offset="0%"/><stop stop-color="#18E2CC" stop-opacity=".72" offset="44.314%"/><stop stop-color="#18E2CC" stop-opacity="0" offset="100%"/></radialGradient><circle id="j" cx="199.723" cy="200.238" r="199.501"/><filter x="0%" y="0%" width="100%" height="100%" filterUnits="objectBoundingBox" id="l"><feGaussianBlur in="SourceGraphic"/></filter><linearGradient x1="88.451%" y1="97.066%" x2="48.181%" y2="39.462%" id="m"><stop stop-color="#18AAE2" offset="0%"/><stop stop-color="#0062FF" stop-opacity="0" offset="100%"/></linearGradient><radialGradient cx="48.392%" cy="0%" fx="48.392%" fy="0%" r="111.725%" gradientTransform="scale(-1 -.8427) rotate(-56.228 0 .906)" id="n"><stop stop-color="#00C2BE" stop-opacity="0" offset="0%"/><stop stop-color="#0062FF" offset="37.439%"/><stop stop-color="#0062FF" stop-opacity="0" offset="65.522%"/><stop stop-color="#111325" stop-opacity="0" offset="100%"/></radialGradient><filter x="-5%" y="-4.2%" width="110%" height="108.4%" filterUnits="objectBoundingBox" id="o"><feGaussianBlur stdDeviation="10" in="SourceGraphic"/></filter><circle id="p" cx="16" cy="16" r="16"/><filter x="0%" y="0%" width="100%" height="100%" filterUnits="objectBoundingBox" id="q"><feGaussianBlur in="SourceGraphic"/></filter><filter x="-18.8%" y="-18.8%" width="137.5%" height="137.5%" filterUnits="objectBoundingBox" id="r"><feGaussianBlur stdDeviation="6" in="SourceAlpha" result="shadowBlurInner1"/><feOffset in="shadowBlurInner1" result="shadowOffsetInner1"/><feComposite in="shadowOffsetInner1" in2="SourceAlpha" operator="arithmetic" k2="-1" k3="1" result="shadowInnerInner1"/><feColorMatrix values="0 0 0 0 0 0 0 0 0 0.384313725 0 0 0 0 1 0 0 0 1 0" in="shadowInnerInner1"/></filter><linearGradient x1="65.533%" y1="39.002%" x2="20.072%" y2="102.251%" id="s"><stop stop-color="#18E2CC" stop-opacity=".64" offset="0%"/><stop stop-color="#18AAE2" stop-opacity="0" offset="100%"/></linearGradient></defs><g fill="none" fill-rule="evenodd"><path d="M303.299 220.774c-2.02 28.062-6.027 56.073-13.073 83.35-3.558 13.618-7.873 27.062-13.46 39.956-2.784 6.444-5.91 12.742-9.481 18.759-3.583 6-7.603 11.756-12.33 16.832-4.714 5.049-10.197 9.454-16.465 12.064-3.135 1.258-6.437 2.102-9.79 2.257-3.35.166-6.727-.231-9.946-1.246-6.486-1.954-12.227-6.062-17.166-10.865-4.951-4.845-9.158-10.476-12.892-16.388-7.431-11.887-13.012-24.922-17.646-38.222-4.613-13.33-8.21-27.016-11.131-40.837-5.788-27.668-8.893-55.885-10.015-84.137-1.083-28.26-.233-56.6 2.815-84.686 1.534-14.04 3.62-28.017 6.412-41.846 2.784-13.828 6.257-27.517 10.69-40.881 4.464-13.337 9.85-26.416 16.99-38.483 3.595-6.003 7.63-11.761 12.384-16.85 4.746-5.056 10.268-9.497 16.63-12.115 3.635-1.461 6.53-2.011 8.463-2.29.966-.167 1.7-.21 2.189-.286.489-.07.735-.135.735-.192-.001-.057-.25-.104-.747-.141-.5-.031-1.25-.086-2.247-.003-1.988.109-5.007.557-8.744 2.043-6.56 2.67-12.207 7.19-17.045 12.308-4.847 5.149-8.946 10.958-12.598 17.005-7.254 12.15-12.72 25.289-17.264 38.675-4.51 13.413-8.056 27.142-10.91 41.006-2.862 13.865-5.015 27.877-6.617 41.949-3.183 28.15-4.164 56.553-3.206 84.892.998 28.333 3.985 56.649 9.682 84.478 2.878 13.903 6.435 27.687 11.033 41.152 4.622 13.439 10.199 26.644 17.735 38.82 3.789 6.059 8.076 11.87 13.213 16.954 2.57 2.535 5.356 4.877 8.395 6.889 3.029 2.02 6.334 3.687 9.858 4.778a31.182 31.182 0 0 0 10.938 1.453c3.708-.127 7.35-1.045 10.768-2.39 6.844-2.783 12.645-7.454 17.586-12.684 4.948-5.267 9.1-11.172 12.79-17.301 3.67-6.147 6.873-12.548 9.718-19.086 5.707-13.08 10.089-26.665 13.706-40.413 7.152-27.536 11.204-55.762 13.223-84.053.956-13.68 1.023-23.971.849-30.823-.182-6.854-.618-10.276-.998-10.276-.413-.001-.77 3.415-1.184 10.233-.422 6.817-.89 17.038-1.847 30.64" filter="url(#b)" transform="rotate(-59 1262.8 -1005.539)" fill="url(#a)"/><g filter="url(#d)"><use filter="url(#e)" xlink:href="#c" opacity=".16" fill="#000" transform="translate(614.837 668.992)"/></g><path d="M463 820.585c165.685 0 300-134.315 300-300s-255.488-620.379-300-300-300 134.315-300 300 134.315 300 300 300z" filter="url(#g)" transform="rotate(44 1836.714 2015.613)" fill="url(#f)"/><path d="M454 820.585c165.685 0 300-134.315 300-300s-255.488-620.379-300-300-300 134.315-300 300 134.315 300 300 300z" filter="url(#i)" transform="rotate(-37 472.675 -1582.476)" fill="url(#h)" fill-opacity=".32"/><use fill="url(#k)" filter="url(#l)" xlink:href="#j" transform="translate(1688.837 156.992)"/><ellipse cx="200.223" cy="200.238" rx="200" ry="199.501" transform="translate(1437.837 171.992)" fill="url(#m)"/><path d="M381.788 685.903c165.685 0 300-134.393 300-300.175s-255.488-620.741-300-300.175-300 134.393-300 300.175 134.314 300.175 300 300.175z" filter="url(#o)" transform="rotate(-85 869.78 -488.593)" fill="url(#n)" fill-opacity=".48"/><g filter="url(#q)"><use filter="url(#r)" xlink:href="#p" opacity=".16" fill="#000" transform="translate(1439.837 105.992)"/></g><circle cx="199.723" cy="200.238" r="199.501" transform="rotate(18 1804.613 5815.555)" fill="url(#s)"/></g></svg>