<?xml version="1.0" encoding="UTF-8"?>
<svg width="137px" height="44px" viewBox="0 0 137 44" version="1.1" xmlns="http://www.w3.org/2000/svg" xmlns:xlink="http://www.w3.org/1999/xlink">
    <title>Dayra Logo White Outlines</title>
    <defs>
        <linearGradient x1="82.0076896%" y1="17.9923104%" x2="0%" y2="100%" id="linearGradient-1">
            <stop stop-color="#18E2CC" offset="0%"></stop>
            <stop stop-color="#18AAE2" offset="100%"></stop>
        </linearGradient>
    </defs>
    <g id="Dayra-Logo-White-Outlines" stroke="none" stroke-width="1" fill="none" fill-rule="evenodd">
        <g id="Group" transform="translate(1.000000, 1.000000)" stroke="url(#linearGradient-1)" stroke-width="4">
            <g id="Oval">
                <circle cx="21" cy="21" r="19"></circle>
            </g>
        </g>
        <g id="Dayra" transform="translate(54.229333, 5.200000)" fill="#FFFFFF" fill-rule="nonzero">
            <path d="M1.896,16.8 L1.896,14.28 L6.312,14.28 C7.464,14.28 8.476,14.032 9.348,13.536 C10.22,13.04 10.9,12.348 11.388,11.46 C11.876,10.572 12.12,9.544 12.12,8.376 C12.12,7.224 11.872,6.208 11.376,5.328 C10.88,4.448 10.196,3.76 9.324,3.264 C8.452,2.768 7.448,2.52 6.312,2.52 L1.896,2.52 L1.896,0 L6.384,0 C7.6,0 8.728,0.212 9.768,0.636 C10.808,1.06 11.716,1.652 12.492,2.412 C13.268,3.172 13.872,4.06 14.304,5.076 C14.736,6.092 14.952,7.2 14.952,8.4 C14.952,9.584 14.736,10.688 14.304,11.712 C13.872,12.736 13.272,13.628 12.504,14.388 C11.736,15.148 10.832,15.74 9.792,16.164 C8.752,16.588 7.632,16.8 6.432,16.8 L1.896,16.8 Z M0,16.8 L0,0 L2.76,0 L2.76,16.8 L0,16.8 Z" id="Shape"></path>
            <path d="M23.0266667,17.04 C21.9866667,17.04 21.0466667,16.776 20.2066667,16.248 C19.3666667,15.72 18.7026667,15.004 18.2146667,14.1 C17.7266667,13.196 17.4826667,12.184 17.4826667,11.064 C17.4826667,9.928 17.7266667,8.908 18.2146667,8.004 C18.7026667,7.1 19.3666667,6.38 20.2066667,5.844 C21.0466667,5.308 21.9866667,5.04 23.0266667,5.04 C23.9066667,5.04 24.6866667,5.228 25.3666667,5.604 C26.0466667,5.98 26.5866667,6.496 26.9866667,7.152 C27.3866667,7.808 27.5866667,8.552 27.5866667,9.384 L27.5866667,12.696 C27.5866667,13.528 27.3906667,14.272 26.9986667,14.928 C26.6066667,15.584 26.0666667,16.1 25.3786667,16.476 C24.6906667,16.852 23.9066667,17.04 23.0266667,17.04 Z M23.4586667,14.544 C24.4346667,14.544 25.2226667,14.216 25.8226667,13.56 C26.4226667,12.904 26.7226667,12.064 26.7226667,11.04 C26.7226667,10.352 26.5866667,9.744 26.3146667,9.216 C26.0426667,8.688 25.6626667,8.276 25.1746667,7.98 C24.6866667,7.684 24.1146667,7.536 23.4586667,7.536 C22.8186667,7.536 22.2546667,7.684 21.7666667,7.98 C21.2786667,8.276 20.8946667,8.688 20.6146667,9.216 C20.3346667,9.744 20.1946667,10.352 20.1946667,11.04 C20.1946667,11.728 20.3346667,12.336 20.6146667,12.864 C20.8946667,13.392 21.2786667,13.804 21.7666667,14.1 C22.2546667,14.396 22.8186667,14.544 23.4586667,14.544 Z M26.5546667,16.8 L26.5546667,13.704 L27.0106667,10.896 L26.5546667,8.112 L26.5546667,5.28 L29.1946667,5.28 L29.1946667,16.8 L26.5546667,16.8 Z" id="Shape"></path>
            <path d="M36.6453333,16.92 L31.7253333,5.28 L34.6293333,5.28 L37.9893333,13.824 L37.1493333,13.824 L40.7013333,5.28 L43.6293333,5.28 L38.2773333,16.92 L36.6453333,16.92 Z M33.2133333,21.6 L36.7893333,14.232 L38.2773333,16.92 L36.1413333,21.6 L33.2133333,21.6 Z" id="Shape"></path>
            <path d="M45.872,16.8 L45.872,5.28 L48.512,5.28 L48.512,16.8 L45.872,16.8 Z M48.512,10.392 L47.6,9.936 C47.6,8.48 47.924,7.3 48.572,6.396 C49.22,5.492 50.2,5.04 51.512,5.04 C52.088,5.04 52.608,5.144 53.072,5.352 C53.536,5.56 53.968,5.896 54.368,6.36 L52.64,8.136 C52.432,7.912 52.2,7.752 51.944,7.656 C51.688,7.56 51.392,7.512 51.056,7.512 C50.32,7.512 49.712,7.744 49.232,8.208 C48.752,8.672 48.512,9.4 48.512,10.392 Z" id="Shape"></path>
            <path d="M60.9306667,17.04 C59.8906667,17.04 58.9506667,16.776 58.1106667,16.248 C57.2706667,15.72 56.6066667,15.004 56.1186667,14.1 C55.6306667,13.196 55.3866667,12.184 55.3866667,11.064 C55.3866667,9.928 55.6306667,8.908 56.1186667,8.004 C56.6066667,7.1 57.2706667,6.38 58.1106667,5.844 C58.9506667,5.308 59.8906667,5.04 60.9306667,5.04 C61.8106667,5.04 62.5906667,5.228 63.2706667,5.604 C63.9506667,5.98 64.4906667,6.496 64.8906667,7.152 C65.2906667,7.808 65.4906667,8.552 65.4906667,9.384 L65.4906667,12.696 C65.4906667,13.528 65.2946667,14.272 64.9026667,14.928 C64.5106667,15.584 63.9706667,16.1 63.2826667,16.476 C62.5946667,16.852 61.8106667,17.04 60.9306667,17.04 Z M61.3626667,14.544 C62.3386667,14.544 63.1266667,14.216 63.7266667,13.56 C64.3266667,12.904 64.6266667,12.064 64.6266667,11.04 C64.6266667,10.352 64.4906667,9.744 64.2186667,9.216 C63.9466667,8.688 63.5666667,8.276 63.0786667,7.98 C62.5906667,7.684 62.0186667,7.536 61.3626667,7.536 C60.7226667,7.536 60.1586667,7.684 59.6706667,7.98 C59.1826667,8.276 58.7986667,8.688 58.5186667,9.216 C58.2386667,9.744 58.0986667,10.352 58.0986667,11.04 C58.0986667,11.728 58.2386667,12.336 58.5186667,12.864 C58.7986667,13.392 59.1826667,13.804 59.6706667,14.1 C60.1586667,14.396 60.7226667,14.544 61.3626667,14.544 Z M64.4586667,16.8 L64.4586667,13.704 L64.9146667,10.896 L64.4586667,8.112 L64.4586667,5.28 L67.0986667,5.28 L67.0986667,16.8 L64.4586667,16.8 Z" id="Shape"></path>
        </g>
        <g id="technologies" transform="translate(53.372167, 29.004000)" fill="#A2A2A2" fill-rule="nonzero">
            <path d="M1.6345,9.996 L1.6345,0.56 L2.898,0.56 L2.898,9.996 L1.6345,9.996 Z M0,4.4905 L0,3.346 L4.529,3.346 L4.529,4.4905 L0,4.4905 Z" id="Shape"></path>
            <path d="M9.08872222,10.136 C8.42372222,10.136 7.82638889,9.9855 7.29672222,9.6845 C6.76705556,9.3835 6.34822222,8.96991667 6.04022222,8.44375 C5.73222222,7.91758333 5.57822222,7.3255 5.57822222,6.6675 C5.57822222,6.01183333 5.72930556,5.42325 6.03147222,4.90175 C6.33363889,4.38025 6.74488889,3.96725 7.26522222,3.66275 C7.78555556,3.35825 8.36538889,3.206 9.00472222,3.206 C9.61838889,3.206 10.1608889,3.34658333 10.6322222,3.62775 C11.1035556,3.90891667 11.4739722,4.29566667 11.7434722,4.788 C12.0129722,5.28033333 12.1477222,5.84266667 12.1477222,6.475 C12.1477222,6.56833333 12.1418889,6.66866667 12.1302222,6.776 C12.1185556,6.88333333 12.0998889,7.00466667 12.0742222,7.14 L6.46372222,7.14 L6.46372222,6.0935 L11.4057222,6.0935 L10.9437222,6.496 C10.9390556,6.05033333 10.8585556,5.67 10.7022222,5.355 C10.5458889,5.04 10.3230556,4.79675 10.0337222,4.62525 C9.74438889,4.45375 9.39322222,4.368 8.98022222,4.368 C8.54622222,4.368 8.16763889,4.46191667 7.84447222,4.64975 C7.52130556,4.83758333 7.27047222,5.0995 7.09197222,5.4355 C6.91347222,5.7715 6.82422222,6.16933333 6.82422222,6.629 C6.82422222,7.09333333 6.91813889,7.5005 7.10597222,7.8505 C7.29380556,8.2005 7.55922222,8.47175 7.90222222,8.66425 C8.24522222,8.85675 8.64188889,8.953 9.09222222,8.953 C9.46322222,8.953 9.80622222,8.8865 10.1212222,8.7535 C10.4362222,8.6205 10.7033889,8.4245 10.9227222,8.1655 L11.7312222,8.9845 C11.4138889,9.35783333 11.0248056,9.64308333 10.5639722,9.84025 C10.1031389,10.0374167 9.61138889,10.136 9.08872222,10.136 Z" id="Path"></path>
            <path d="M17.0259444,10.136 C16.3726111,10.136 15.7822778,9.98316667 15.2549444,9.6775 C14.7276111,9.37183333 14.3116944,8.95533333 14.0071944,8.428 C13.7026944,7.90066667 13.5504444,7.31266667 13.5504444,6.664 C13.5504444,6.01066667 13.7026944,5.42325 14.0071944,4.90175 C14.3116944,4.38025 14.7276111,3.96725 15.2549444,3.66275 C15.7822778,3.35825 16.3726111,3.206 17.0259444,3.206 C17.5346111,3.206 18.0094444,3.30283333 18.4504444,3.4965 C18.8914444,3.69016667 19.2671111,3.9655 19.5774444,4.3225 L18.7479444,5.1625 C18.5379444,4.91983333 18.2853611,4.7355 17.9901944,4.6095 C17.6950278,4.4835 17.3736111,4.4205 17.0259444,4.4205 C16.6036111,4.4205 16.2279444,4.51733333 15.8989444,4.711 C15.5699444,4.90466667 15.3126944,5.16833333 15.1271944,5.502 C14.9416944,5.83566667 14.8489444,6.223 14.8489444,6.664 C14.8489444,7.10033333 14.9416944,7.48825 15.1271944,7.82775 C15.3126944,8.16725 15.5699444,8.43441667 15.8989444,8.62925 C16.2279444,8.82408333 16.6036111,8.9215 17.0259444,8.9215 C17.3759444,8.9215 17.6991111,8.8585 17.9954444,8.7325 C18.2917778,8.6065 18.5461111,8.421 18.7584444,8.176 L19.5879444,9.016 C19.2752778,9.37533333 18.8972778,9.65183333 18.4539444,9.8455 C18.0106111,10.0391667 17.5346111,10.136 17.0259444,10.136 Z" id="Path"></path>
            <path d="M25.9956667,9.996 L25.9956667,6.125 C25.9956667,5.614 25.83875,5.19633333 25.5249167,4.872 C25.2110833,4.54766667 24.8030417,4.3855 24.3007917,4.3855 C23.9589583,4.3855 23.6572292,4.45958333 23.3956042,4.60775 C23.1339792,4.75591667 22.9290833,4.96066667 22.7809167,5.222 C22.63275,5.48333333 22.5586667,5.78316667 22.5586667,6.1215 L22.0336667,5.8275 C22.0336667,5.32116667 22.1474167,4.87141667 22.3749167,4.47825 C22.6024167,4.08508333 22.9153021,3.77475 23.3135729,3.54725 C23.7118437,3.31975 24.1627604,3.206 24.6663229,3.206 C25.1698854,3.206 25.6170833,3.31916667 26.0079167,3.5455 C26.39875,3.77183333 26.705,4.08508333 26.9266667,4.48525 C27.1483333,4.88541667 27.2591667,5.348 27.2591667,5.873 L27.2591667,9.996 L25.9956667,9.996 Z M21.2951667,9.996 L21.2951667,-1.42108547e-14 L22.5586667,-1.42108547e-14 L22.5586667,9.996 L21.2951667,9.996 Z" id="Shape"></path>
            <path d="M34.1288889,9.996 L34.1288889,6.125 C34.1288889,5.614 33.9719722,5.19633333 33.6581389,4.872 C33.3443056,4.54766667 32.9362639,4.3855 32.4340139,4.3855 C32.0921806,4.3855 31.7904514,4.45958333 31.5288264,4.60775 C31.2672014,4.75591667 31.0623056,4.96066667 30.9141389,5.222 C30.7659722,5.48333333 30.6918889,5.78316667 30.6918889,6.1215 L30.1668889,5.8275 C30.1668889,5.32116667 30.2806389,4.87141667 30.5081389,4.47825 C30.7356389,4.08508333 31.0485243,3.77475 31.4467951,3.54725 C31.845066,3.31975 32.2959826,3.206 32.7995451,3.206 C33.3031076,3.206 33.7503056,3.33141667 34.1411389,3.58225 C34.5319722,3.83308333 34.8382222,4.16208333 35.0598889,4.56925 C35.2815556,4.97641667 35.3923889,5.411 35.3923889,5.873 L35.3923889,9.996 L34.1288889,9.996 Z M29.4283889,9.996 L29.4283889,3.346 L30.6918889,3.346 L30.6918889,9.996 L29.4283889,9.996 Z" id="Shape"></path>
            <path d="M40.5961111,10.136 C39.9497778,10.136 39.3646944,9.98141667 38.8408611,9.67225 C38.3170278,9.36308333 37.9011111,8.94483333 37.5931111,8.4175 C37.2851111,7.89016667 37.1311111,7.30216667 37.1311111,6.6535 C37.1311111,6.00716667 37.2851111,5.425 37.5931111,4.907 C37.9011111,4.389 38.3170278,3.976 38.8408611,3.668 C39.3646944,3.36 39.9497778,3.206 40.5961111,3.206 C41.2471111,3.206 41.8345278,3.35825 42.3583611,3.66275 C42.8821944,3.96725 43.2981111,4.38025 43.6061111,4.90175 C43.9141111,5.42325 44.0681111,6.00716667 44.0681111,6.6535 C44.0681111,7.3045 43.9141111,7.89308333 43.6061111,8.41925 C43.2981111,8.94541667 42.8821944,9.36308333 42.3583611,9.67225 C41.8345278,9.98141667 41.2471111,10.136 40.5961111,10.136 Z M40.5961111,8.9215 C41.0184444,8.9215 41.3935278,8.82408333 41.7213611,8.62925 C42.0491944,8.43441667 42.3058611,8.16491667 42.4913611,7.82075 C42.6768611,7.47658333 42.7696111,7.08633333 42.7696111,6.65 C42.7696111,6.21833333 42.6751111,5.83566667 42.4861111,5.502 C42.2971111,5.16833333 42.0404444,4.90466667 41.7161111,4.711 C41.3917778,4.51733333 41.0184444,4.4205 40.5961111,4.4205 C40.1807778,4.4205 39.8086111,4.51733333 39.4796111,4.711 C39.1506111,4.90466667 38.8933611,5.16833333 38.7078611,5.502 C38.5223611,5.83566667 38.4296111,6.2195 38.4296111,6.6535 C38.4296111,7.08983333 38.5223611,7.4795 38.7078611,7.8225 C38.8933611,8.1655 39.1506111,8.43441667 39.4796111,8.62925 C39.8086111,8.82408333 40.1807778,8.9215 40.5961111,8.9215 Z" id="Shape"></path>
            <polygon id="Path" points="45.9468333 9.996 45.9468333 -1.42108547e-14 47.2103333 -1.42108547e-14 47.2103333 9.996"></polygon>
            <path d="M52.5540556,10.136 C51.9077222,10.136 51.3226389,9.98141667 50.7988056,9.67225 C50.2749722,9.36308333 49.8590556,8.94483333 49.5510556,8.4175 C49.2430556,7.89016667 49.0890556,7.30216667 49.0890556,6.6535 C49.0890556,6.00716667 49.2430556,5.425 49.5510556,4.907 C49.8590556,4.389 50.2749722,3.976 50.7988056,3.668 C51.3226389,3.36 51.9077222,3.206 52.5540556,3.206 C53.2050556,3.206 53.7924722,3.35825 54.3163056,3.66275 C54.8401389,3.96725 55.2560556,4.38025 55.5640556,4.90175 C55.8720556,5.42325 56.0260556,6.00716667 56.0260556,6.6535 C56.0260556,7.3045 55.8720556,7.89308333 55.5640556,8.41925 C55.2560556,8.94541667 54.8401389,9.36308333 54.3163056,9.67225 C53.7924722,9.98141667 53.2050556,10.136 52.5540556,10.136 Z M52.5540556,8.9215 C52.9763889,8.9215 53.3514722,8.82408333 53.6793056,8.62925 C54.0071389,8.43441667 54.2638056,8.16491667 54.4493056,7.82075 C54.6348056,7.47658333 54.7275556,7.08633333 54.7275556,6.65 C54.7275556,6.21833333 54.6330556,5.83566667 54.4440556,5.502 C54.2550556,5.16833333 53.9983889,4.90466667 53.6740556,4.711 C53.3497222,4.51733333 52.9763889,4.4205 52.5540556,4.4205 C52.1387222,4.4205 51.7665556,4.51733333 51.4375556,4.711 C51.1085556,4.90466667 50.8513056,5.16833333 50.6658056,5.502 C50.4803056,5.83566667 50.3875556,6.2195 50.3875556,6.6535 C50.3875556,7.08983333 50.4803056,7.4795 50.6658056,7.8225 C50.8513056,8.1655 51.1085556,8.43441667 51.4375556,8.62925 C51.7665556,8.82408333 52.1387222,8.9215 52.5540556,8.9215 Z" id="Shape"></path>
            <path d="M60.6662778,12.922 C59.9802778,12.922 59.3747778,12.7965833 58.8497778,12.54575 C58.3247778,12.2949167 57.9012778,11.9396667 57.5792778,11.48 L58.4017778,10.6575 C58.6677778,11.0005 58.9874444,11.263 59.3607778,11.445 C59.7341111,11.627 60.1774444,11.718 60.6907778,11.718 C61.3697778,11.718 61.9081944,11.5395 62.3060278,11.1825 C62.7038611,10.8255 62.9027778,10.3401667 62.9027778,9.7265 L62.9027778,8.078 L63.1337778,6.587 L62.9027778,5.096 L62.9027778,3.346 L64.1662778,3.346 L64.1662778,9.7265 C64.1662778,10.3658333 64.0192778,10.9240833 63.7252778,11.40125 C63.4312778,11.8784167 63.0211944,12.2511667 62.4950278,12.5195 C61.9688611,12.7878333 61.3592778,12.922 60.6662778,12.922 Z M60.6662778,9.891 C60.0619444,9.891 59.5182778,9.74516667 59.0352778,9.4535 C58.5522778,9.16183333 58.1719444,8.76166667 57.8942778,8.253 C57.6166111,7.74433333 57.4777778,7.17266667 57.4777778,6.538 C57.4777778,5.90566667 57.6160278,5.33866667 57.8925278,4.837 C58.1690278,4.33533333 58.5487778,3.93808333 59.0317778,3.64525 C59.5147778,3.35241667 60.0572778,3.206 60.6592778,3.206 C61.1819444,3.206 61.6445278,3.30925 62.0470278,3.51575 C62.4495278,3.72225 62.7691944,4.00925 63.0060278,4.37675 C63.2428611,4.74425 63.3741111,5.17533333 63.3997778,5.67 L63.3997778,7.4305 C63.3717778,7.91583333 63.2376111,8.344 62.9972778,8.715 C62.7569444,9.086 62.4366944,9.37475 62.0365278,9.58125 C61.6363611,9.78775 61.1796111,9.891 60.6662778,9.891 Z M60.9112778,8.6975 C61.3242778,8.6975 61.6865278,8.60825 61.9980278,8.42975 C62.3095278,8.25125 62.5510278,8.001 62.7225278,7.679 C62.8940278,7.357 62.9797778,6.98016667 62.9797778,6.5485 C62.9797778,6.11916667 62.8934444,5.74408333 62.7207778,5.42325 C62.5481111,5.10241667 62.3060278,4.85158333 61.9945278,4.67075 C61.6830278,4.48991667 61.3196111,4.3995 60.9042778,4.3995 C60.4866111,4.3995 60.1173611,4.48991667 59.7965278,4.67075 C59.4756944,4.85158333 59.2254444,5.10241667 59.0457778,5.42325 C58.8661111,5.74408333 58.7762778,6.118 58.7762778,6.545 C58.7762778,6.965 58.8666944,7.33833333 59.0475278,7.665 C59.2283611,7.99166667 59.4791944,8.24541667 59.8000278,8.42625 C60.1208611,8.60708333 60.4912778,8.6975 60.9112778,8.6975 Z" id="Shape"></path>
            <path d="M66.4825,9.996 L66.4825,3.346 L67.746,3.346 L67.746,9.996 L66.4825,9.996 Z M67.1125,2.0195 C66.8861667,2.0195 66.69775,1.94133333 66.54725,1.785 C66.39675,1.62866667 66.3215,1.43733333 66.3215,1.211 C66.3215,0.982333333 66.39675,0.791 66.54725,0.637 C66.69775,0.483 66.8861667,0.406 67.1125,0.406 C67.3481667,0.406 67.5400833,0.483 67.68825,0.637 C67.8364167,0.791 67.9105,0.982333333 67.9105,1.211 C67.9105,1.43733333 67.8364167,1.62866667 67.68825,1.785 C67.5400833,1.94133333 67.3481667,2.0195 67.1125,2.0195 Z" id="Shape"></path>
            <path d="M73.1492222,10.136 C72.4842222,10.136 71.8868889,9.9855 71.3572222,9.6845 C70.8275556,9.3835 70.4087222,8.96991667 70.1007222,8.44375 C69.7927222,7.91758333 69.6387222,7.3255 69.6387222,6.6675 C69.6387222,6.01183333 69.7898056,5.42325 70.0919722,4.90175 C70.3941389,4.38025 70.8053889,3.96725 71.3257222,3.66275 C71.8460556,3.35825 72.4258889,3.206 73.0652222,3.206 C73.6788889,3.206 74.2213889,3.34658333 74.6927222,3.62775 C75.1640556,3.90891667 75.5344722,4.29566667 75.8039722,4.788 C76.0734722,5.28033333 76.2082222,5.84266667 76.2082222,6.475 C76.2082222,6.56833333 76.2023889,6.66866667 76.1907222,6.776 C76.1790556,6.88333333 76.1603889,7.00466667 76.1347222,7.14 L70.5242222,7.14 L70.5242222,6.0935 L75.4662222,6.0935 L75.0042222,6.496 C74.9995556,6.05033333 74.9190556,5.67 74.7627222,5.355 C74.6063889,5.04 74.3835556,4.79675 74.0942222,4.62525 C73.8048889,4.45375 73.4537222,4.368 73.0407222,4.368 C72.6067222,4.368 72.2281389,4.46191667 71.9049722,4.64975 C71.5818056,4.83758333 71.3309722,5.0995 71.1524722,5.4355 C70.9739722,5.7715 70.8847222,6.16933333 70.8847222,6.629 C70.8847222,7.09333333 70.9786389,7.5005 71.1664722,7.8505 C71.3543056,8.2005 71.6197222,8.47175 71.9627222,8.66425 C72.3057222,8.85675 72.7023889,8.953 73.1527222,8.953 C73.5237222,8.953 73.8667222,8.8865 74.1817222,8.7535 C74.4967222,8.6205 74.7638889,8.4245 74.9832222,8.1655 L75.7917222,8.9845 C75.4743889,9.35783333 75.0853056,9.64308333 74.6244722,9.84025 C74.1636389,10.0374167 73.6718889,10.136 73.1492222,10.136 Z" id="Path"></path>
            <path d="M80.1519444,10.136 C79.7856111,10.136 79.4350278,10.087 79.1001944,9.989 C78.7653611,9.891 78.4591111,9.75216667 78.1814444,9.5725 C77.9037778,9.39283333 77.6611111,9.177 77.4534444,8.925 L78.2619444,8.113 C78.5069444,8.407 78.7886944,8.62633333 79.1071944,8.771 C79.4256944,8.91566667 79.7821111,8.988 80.1764444,8.988 C80.5684444,8.988 80.8706111,8.92091667 81.0829444,8.78675 C81.2952778,8.65258333 81.4014444,8.46183333 81.4014444,8.2145 C81.4014444,7.97183333 81.3156944,7.78283333 81.1441944,7.6475 C80.9726944,7.51216667 80.7510278,7.40075 80.4791944,7.31325 C80.2073611,7.22575 79.9209444,7.13883333 79.6199444,7.0525 C79.3189444,6.96616667 79.0325278,6.853 78.7606944,6.713 C78.4888611,6.573 78.2671944,6.37991667 78.0956944,6.13375 C77.9241944,5.88758333 77.8384444,5.565 77.8384444,5.166 C77.8384444,4.76466667 77.9346944,4.41816667 78.1271944,4.1265 C78.3196944,3.83483333 78.5926944,3.6085 78.9461944,3.4475 C79.2996944,3.2865 79.7214444,3.206 80.2114444,3.206 C80.7317778,3.206 81.1955278,3.29816667 81.6026944,3.4825 C82.0098611,3.66683333 82.3452778,3.941 82.6089444,4.305 L81.8004444,5.1135 C81.6067778,4.86616667 81.3734444,4.67775 81.1004444,4.54825 C80.8274444,4.41875 80.5171111,4.354 80.1694444,4.354 C79.8077778,4.354 79.5301111,4.41816667 79.3364444,4.5465 C79.1427778,4.67483333 79.0459444,4.84866667 79.0459444,5.068 C79.0459444,5.28966667 79.1316944,5.46233333 79.3031944,5.586 C79.4746944,5.70966667 79.6963611,5.81233333 79.9681944,5.894 C80.2400278,5.97566667 80.5264444,6.06083333 80.8274444,6.1495 C81.1284444,6.23816667 81.4148611,6.35716667 81.6866944,6.5065 C81.9585278,6.65583333 82.1801944,6.8565 82.3516944,7.1085 C82.5231944,7.3605 82.6089444,7.693 82.6089444,8.106 C82.6089444,8.729 82.3878611,9.22308333 81.9456944,9.58825 C81.5035278,9.95341667 80.9056111,10.136 80.1519444,10.136 Z" id="Path"></path>
        </g>
    </g>
</svg>