<?xml version="1.0" encoding="UTF-8"?>
<svg width="80px" height="80px" viewBox="0 0 80 80" version="1.1" xmlns="http://www.w3.org/2000/svg" xmlns:xlink="http://www.w3.org/1999/xlink">
    <!-- Generator: Sketch 51.3 (57544) - http://www.bohemiancoding.com/sketch -->
    <title>Oval 7</title>
    <desc>Created with Sketch.</desc>
    <defs></defs>
    <g id="Page-1" stroke="none" stroke-width="1" fill="none" fill-rule="evenodd">
        <g id="Artboard-9" transform="translate(-35.000000, -142.000000)">
            <circle id="Oval-7" cx="75" cy="182" r="40"></circle>
            <g id="Bitmap-(1)" transform="translate(53.000000, 160.000000)" fill-rule="nonzero">
                <g id="Group" transform="translate(22.500000, 22.500000) scale(-1, 1) rotate(-180.000000) translate(-22.500000, -22.500000) ">
                    <path d="M1.76086957,44.5695652 C1.11521739,44.2369565 0.763043478,43.8847826 0.45,43.2391304 C0.0195652174,42.4173913 0,42.1434783 0,38.3282609 C0,34.9043478 0.0391304348,34.2195652 0.313043478,33.9652174 C0.469565217,33.7891304 0.684782609,33.6521739 0.782608696,33.6521739 C0.880434783,33.6521739 1.09565217,33.7891304 1.25217391,33.9652174 C1.52608696,34.2195652 1.56521739,34.9043478 1.56521739,38.3673913 C1.56521739,42.476087 1.56521739,42.476087 2.05434783,42.9456522 C2.52391304,43.4347826 2.52391304,43.4347826 6.6326087,43.4347826 C10.0956522,43.4347826 10.7804348,43.473913 11.0347826,43.7478261 C11.426087,44.1195652 11.426087,44.3152174 11.0347826,44.6869565 C10.7804348,44.9608696 10.0956522,45 6.67173913,45 C2.85652174,45 2.5826087,44.9804348 1.76086957,44.5695652 Z" id="Shape" fill="#18E2CC"></path>
                    <path d="M33.9652174,44.6869565 C33.7891304,44.5304348 33.6521739,44.3152174 33.6521739,44.2173913 C33.6521739,44.1195652 33.7891304,43.9043478 33.9652174,43.7478261 C34.2195652,43.473913 34.9043478,43.4347826 38.3673913,43.4347826 C43.8652174,43.4347826 43.4347826,43.8652174 43.4347826,38.3673913 C43.4347826,34.9043478 43.473913,34.2195652 43.7478261,33.9652174 C43.9043478,33.7891304 44.1195652,33.6521739 44.2173913,33.6521739 C44.3152174,33.6521739 44.5304348,33.7891304 44.6869565,33.9652174 C44.9608696,34.2195652 45,34.9043478 45,38.3282609 C45,42.1434783 44.9804348,42.4173913 44.5695652,43.2391304 C44.2369565,43.8847826 43.8847826,44.2369565 43.2391304,44.5695652 C42.4173913,44.9804348 42.1434783,45 38.3282609,45 C34.9043478,45 34.2195652,44.9608696 33.9652174,44.6869565 Z" id="Shape" fill="#18E2CC"></path>
                    <path d="M18.4108696,41.576087 C13.6369565,40.5391304 11.1717391,37.1152174 11.8956522,32.5173913 C12.0326087,31.6956522 12.1891304,30.7956522 12.2478261,30.5217391 C12.326087,30.1108696 12.2478261,29.9934783 11.7782609,29.7782609 C10.9565217,29.426087 10.4869565,28.3695652 10.6043478,27.176087 L10.7021739,26.2173913 L5.5173913,26.1782609 C0.763043478,26.1195652 0.313043478,26.1 0.117391304,25.7673913 C-0.0586956522,25.473913 -0.0195652174,25.3369565 0.37173913,25.023913 C0.802173913,24.6717391 1.17391304,24.6521739 6.1826087,24.6521739 L11.523913,24.6521739 L11.6413043,23.9282609 C11.8565217,22.5586957 12.0326087,22.226087 12.873913,21.6586957 C13.5195652,21.2282609 13.6956522,20.9934783 13.6956522,20.523913 C13.6956522,19.7021739 14.3804348,18.0195652 14.9673913,17.4130435 C15.4369565,16.9043478 15.4565217,16.8456522 15.2804348,15.573913 C15.1826087,14.8304348 15.0456522,14.2043478 14.9869565,14.1456522 C14.9282609,14.0869565 13.1869565,13.5195652 11.1130435,12.873913 C7.00434783,11.6021739 6.24130435,11.1913043 5.65434783,9.9 C5.12608696,8.74565217 5.12608696,5.71304348 5.65434783,5.0673913 L6.02608696,4.59782609 L22.5,4.59782609 L38.973913,4.59782609 L39.3456522,5.0673913 C39.6586957,5.43913043 39.7173913,5.85 39.7173913,7.29782609 C39.7173913,9.35217391 39.3065217,10.4478261 38.2695652,11.2304348 C37.9173913,11.5043478 36.0586957,12.2086957 33.8869565,12.873913 C31.8130435,13.5195652 30.0717391,14.0869565 30.0130435,14.1456522 C29.9543478,14.2043478 29.8369565,14.8304348 29.7195652,15.5543478 C29.5434783,16.8456522 29.5434783,16.8847826 30.1108696,17.5304348 C30.6391304,18.1173913 31.0891304,19.2913043 31.4021739,20.7978261 C31.4608696,21.1304348 31.6956522,21.4043478 31.9695652,21.5217391 C32.5956522,21.7565217 33.2608696,22.6369565 33.2608696,23.2630435 C33.2608696,23.5369565 33.3195652,23.9673913 33.3782609,24.2217391 L33.4956522,24.6521739 L38.8369565,24.6521739 C43.826087,24.6521739 44.1978261,24.6717391 44.6282609,25.023913 C45.0195652,25.3369565 45.0586957,25.473913 44.8826087,25.7673913 C44.6869565,26.1 44.2369565,26.1195652 39.4826087,26.1782609 L34.2978261,26.2173913 L34.3956522,27.176087 C34.5130435,28.3891304 34.0434783,29.4065217 33.1826087,29.8173913 L32.5369565,30.1304348 L32.8108696,31.1478261 C33.2217391,32.6934783 33.0652174,36.0195652 32.5369565,37.2130435 C31.5586957,39.3652174 29.4065217,40.8913043 26.4717391,41.5565217 C24.7108696,41.9478261 20.1913043,41.9478261 18.4108696,41.576087 Z M24.9456522,40.3043478 C27.2543478,39.9717391 28.6434783,39.4043478 29.8369565,38.3086957 C30.7369565,37.4869565 30.9717391,37.1347826 31.3043478,36.0586957 C31.676087,34.826087 31.8326087,32.673913 31.5586957,32.673913 C31.4608696,32.673913 31.2456522,33.0652174 31.05,33.5543478 C30.2478261,35.4913043 28.7608696,36.9 27.7826087,36.6652174 C27.5282609,36.6065217 26.9413043,36.2152174 26.4913043,35.823913 C25.4347826,34.826087 24.5152174,34.5326087 22.5,34.5326087 C20.5043478,34.5326087 19.5652174,34.826087 18.5086957,35.8043478 C17.4913043,36.723913 17.0021739,36.8804348 16.2782609,36.5086957 C15.476087,36.0978261 14.7130435,35.1391304 14.0086957,33.6521739 L13.4021739,32.3804348 L13.3434783,33.7695652 C13.2847826,35.3934783 13.7934783,37.0173913 14.673913,38.0347826 C16.3565217,39.9326087 20.7,40.9108696 24.9456522,40.3043478 Z M19.076087,33.6130435 C19.9369565,33.2217391 20.3673913,33.1630435 22.5,33.1630435 C24.6326087,33.1630435 25.0630435,33.2217391 25.923913,33.6130435 C26.4717391,33.8673913 27.176087,34.3173913 27.5086957,34.65 L28.0956522,35.2173913 L28.6043478,34.6891304 C29.3282609,33.926087 30.0717391,32.2434783 30.423913,30.5217391 C30.8543478,28.5456522 30.8934783,28.4673913 31.9108696,28.4673913 C32.7717391,28.4673913 32.7717391,28.4673913 32.8304348,27.7434783 C32.8695652,27.3521739 32.7913043,26.8434783 32.673913,26.6086957 C32.4586957,26.2173913 32.3804348,26.2173913 22.4413043,26.2565217 L12.423913,26.3152174 L12.2086957,27 C11.8565217,28.0565217 12.1108696,28.4673913 13.1086957,28.4673913 C14.1065217,28.4673913 14.1652174,28.5456522 14.576087,30.5217391 C14.9282609,32.2434783 15.6717391,33.926087 16.3956522,34.6891304 L16.9043478,35.2173913 L17.4913043,34.65 C17.823913,34.3173913 18.5478261,33.8673913 19.076087,33.6130435 Z M31.8521739,23.9478261 C31.7934783,23.223913 31.6956522,23.126087 30.6195652,22.6565217 C30.0913043,22.4217391 30.0130435,22.2847826 29.8956522,21.1891304 C29.6608696,19.1152174 29.2304348,18.3913043 27.4695652,17.2565217 C26.6086957,16.7086957 25.6304348,15.9847826 25.2782609,15.6521739 C24.5347826,14.9478261 23.2043478,14.2826087 22.5,14.2826087 C21.7565217,14.2826087 20.4456522,14.9673913 19.6630435,15.7304348 C19.2913043,16.1217391 18.6847826,16.5717391 18.3326087,16.7478261 C16.2,17.8434783 15.4369565,18.8413043 15.1630435,20.8369565 C14.9478261,22.5782609 14.9086957,22.6369565 14.2630435,22.773913 C13.3826087,22.95 13.1086957,23.223913 13.1086957,23.9869565 L13.1086957,24.6521739 L22.5195652,24.6521739 L31.9108696,24.6521739 L31.8521739,23.9478261 Z M18.8413043,14.4586957 C21.0717391,12.3652174 23.9478261,12.3065217 26.0413043,14.3608696 C26.4130435,14.7130435 27.0195652,15.1826087 27.4108696,15.4173913 L28.1347826,15.8478261 L28.2521739,15.4173913 C28.3108696,15.1630435 28.3695652,14.5565217 28.3695652,14.0478261 C28.3695652,13.2456522 28.2717391,12.9913043 27.6847826,12.3456522 C27.3130435,11.9347826 26.5304348,11.3869565 25.9630435,11.1326087 C25.0630435,10.7217391 24.6521739,10.6630435 22.5,10.6630435 C20.3478261,10.6630435 19.9369565,10.7217391 19.0369565,11.1326087 C18.4695652,11.3869565 17.6869565,11.9347826 17.3152174,12.3456522 C16.7282609,12.9913043 16.6304348,13.2456522 16.6304348,14.0478261 C16.6304348,14.5565217 16.6891304,15.1630435 16.7478261,15.3978261 C16.8652174,15.8086957 16.9043478,15.8282609 17.4521739,15.5347826 C17.7652174,15.3782609 18.3913043,14.8891304 18.8413043,14.4586957 Z M15.9065217,11.7195652 C18.5478261,7.90434783 27.2543478,8.23695652 29.5043478,12.2478261 C29.6804348,12.5608696 29.9543478,12.5217391 33.0847826,11.5630435 C34.9630435,10.976087 36.723913,10.3891304 37.0173913,10.2521739 C37.9173913,9.7826087 38.1521739,9.25434783 38.1521739,7.59130435 L38.1521739,6.06521739 L22.5,6.06521739 L6.84782609,6.06521739 L6.84782609,7.65 C6.84782609,9.1173913 6.88695652,9.25434783 7.39565217,9.7826087 C7.78695652,10.173913 8.58913043,10.526087 10.2913043,11.0347826 C11.5630435,11.4456522 13.1086957,11.9347826 13.6956522,12.1304348 C15.1826087,12.6391304 15.2804348,12.6195652 15.9065217,11.7195652 Z" id="Shape" fill="#E9E9E9"></path>
                    <path d="M0.313043478,11.0347826 C0.0391304348,10.7804348 0,10.0956522 0,6.67173913 C0,2.85652174 0.0195652174,2.5826087 0.45,1.76086957 C0.763043478,1.11521739 1.11521739,0.763043478 1.76086957,0.45 C2.5826087,0.0195652174 2.85652174,0 6.67173913,0 C10.0956522,0 10.7804348,0.0391304348 11.0347826,0.313043478 C11.426087,0.684782609 11.426087,0.880434783 11.0347826,1.25217391 C10.7804348,1.52608696 10.0956522,1.56521739 6.6326087,1.56521739 C1.13478261,1.56521739 1.56521739,1.13478261 1.56521739,6.6326087 C1.56521739,10.0956522 1.52608696,10.7804348 1.25217391,11.0347826 C0.880434783,11.426087 0.684782609,11.426087 0.313043478,11.0347826 Z" id="Shape" fill="#18E2CC"></path>
                    <path d="M43.7478261,11.0347826 C43.473913,10.7804348 43.4347826,10.0956522 43.4347826,6.6326087 C43.4347826,1.13478261 43.8652174,1.56521739 38.3673913,1.56521739 C34.9043478,1.56521739 34.2195652,1.52608696 33.9652174,1.25217391 C33.7891304,1.09565217 33.6521739,0.880434783 33.6521739,0.782608696 C33.6521739,0.684782609 33.7891304,0.469565217 33.9652174,0.313043478 C34.2195652,0.0391304348 34.9043478,0 38.3282609,0 C42.1434783,0 42.4173913,0.0195652174 43.2391304,0.430434783 C43.8847826,0.763043478 44.2369565,1.11521739 44.5695652,1.76086957 C44.9804348,2.5826087 45,2.85652174 45,6.67173913 C45,10.0956522 44.9608696,10.7804348 44.6869565,11.0347826 C44.5304348,11.2108696 44.3152174,11.3478261 44.2173913,11.3478261 C44.1195652,11.3478261 43.9043478,11.2108696 43.7478261,11.0347826 Z" id="Shape" fill="#18E2CC"></path>
                </g>
            </g>
        </g>
    </g>
</svg>