<?xml version="1.0" encoding="UTF-8"?>
<svg width="80px" height="80px" viewBox="0 0 80 80" version="1.1" xmlns="http://www.w3.org/2000/svg" xmlns:xlink="http://www.w3.org/1999/xlink">
    <!-- Generator: Sketch 51.3 (57544) - http://www.bohemiancoding.com/sketch -->
    <title>Oval 7</title>
    <desc>Created with Sketch.</desc>
    <defs></defs>
    <g id="Page-1" stroke="none" stroke-width="1" fill="none" fill-rule="evenodd">
        <g id="Artboard-9" transform="translate(-136.000000, -142.000000)">
            <circle id="Oval-7" cx="176" cy="182" r="40"></circle>
            <g id="Bitmap4" transform="translate(151.000000, 167.000000)" fill-rule="nonzero">
                <g id="Group" transform="translate(25.500000, 15.500000) scale(-1, 1) rotate(-180.000000) translate(-25.500000, -15.500000) ">
                    <path d="M4.88823529,30.8041356 C2.98235294,30.4836301 1.34117647,29.2016083 0.511764706,27.3854107 L0,26.2814474 L0,15.5089029 L0,4.73635841 L0.511764706,3.63239518 C1.37647059,1.74497415 2.96470588,0.55198162 5.04705882,0.195864446 C6.49411765,-0.0356117174 37.1117647,-0.0534175761 37.7294118,0.178058587 C38.2588235,0.391728891 38.4352941,0.8190695 38.2058824,1.26421597 C38.0294118,1.60252728 37.5176471,1.60252728 21.4764706,1.65594486 C8.34705882,1.69155658 4.83529412,1.76278001 4.41176471,1.9408386 C3.35294118,2.40379092 2.59411765,3.08041356 2.1,3.98851235 L1.58823529,4.914417 L1.58823529,15.5089029 L1.58823529,26.1033889 L2.1,27.0292935 C2.61176471,27.9551982 3.38823529,28.6496267 4.41176471,29.0591614 C4.71176471,29.1838024 6.3,29.3262493 8.11764706,29.3796669 L11.2941176,29.486502 L11.3470588,30.0740953 C11.4,30.5548535 11.3294118,30.6794945 10.9411765,30.8219414 C10.3764706,31.0356117 6.19411765,31.0178059 4.88823529,30.8041356 Z" id="Shape" fill="#18E2CC"></path>
                    <path d="M13.5705882,30.8219414 C13.0941176,30.626077 12.9176471,30.1809305 13.1470588,29.7535899 C13.3235294,29.4152786 13.8352941,29.4152786 29.7,29.361861 C42.6882353,29.3262493 46.1647059,29.2550258 46.5882353,29.0769673 C47.6470588,28.6140149 48.4058824,27.9373923 48.9,27.0292935 L49.4117647,26.1033889 L49.4117647,15.5089029 L49.4117647,4.914417 L48.9,3.98851235 C48.3882353,3.0626077 47.5941176,2.36817921 46.5882353,1.95864446 C46.2882353,1.83400345 44.7176471,1.69155658 43.0588235,1.638139 L40.0588235,1.53130385 L40.0058824,0.943710511 C39.9529412,0.462952326 40.0235294,0.338311315 40.4117647,0.195864446 C41.0117647,-0.0356117174 44.5058824,-0.0356117174 45.9529412,0.195864446 C48.0352941,0.55198162 49.6235294,1.74497415 50.4882353,3.63239518 L51,4.73635841 L51,15.5089029 L51,26.2814474 L50.4882353,27.3854107 C49.6235294,29.2728317 48.0352941,30.4658242 45.9529412,30.8219414 C44.5764706,31.0356117 14.1176471,31.0534176 13.5705882,30.8219414 Z" id="Shape" fill="#18E2CC"></path>
                    <path d="M4.90588235,26.9936818 C4.58823529,26.8512349 4.16470588,26.4773119 3.97058824,26.1568064 C3.63529412,25.587019 3.61764706,25.2843194 3.61764706,15.5089029 C3.61764706,5.7334865 3.63529412,5.4307869 3.97058824,4.86099943 C4.67647059,3.70361861 3.52941176,3.75703619 25.5,3.75703619 C47.4705882,3.75703619 46.3235294,3.70361861 47.0294118,4.86099943 C47.3647059,5.4307869 47.3823529,5.7334865 47.3823529,15.5089029 C47.3823529,25.2843194 47.3647059,25.587019 47.0294118,26.1568064 C46.3235294,27.3141872 47.4705882,27.2607697 25.4647059,27.2607697 C8.7,27.2429638 5.38235294,27.2073521 4.90588235,26.9936818 Z M45.5823529,25.4445721 C45.7235294,25.3021252 45.7941176,24.6255026 45.7941176,23.5749569 L45.7941176,21.9190121 L25.5,21.9190121 L5.20588235,21.9190121 L5.20588235,23.5749569 C5.20588235,24.6255026 5.27647059,25.3021252 5.41764706,25.4445721 C5.71764706,25.7472717 45.2823529,25.7472717 45.5823529,25.4445721 Z M45.7941176,15.5089029 L45.7941176,10.7013211 L25.5,10.7013211 L5.20588235,10.7013211 L5.20588235,15.5089029 L5.20588235,20.3164848 L25.5,20.3164848 L45.7941176,20.3164848 L45.7941176,15.5089029 Z M45.7941176,7.44284894 C45.7941176,6.39230327 45.7235294,5.71568064 45.5823529,5.57323377 C45.2823529,5.27053418 5.71764706,5.27053418 5.41764706,5.57323377 C5.27647059,5.71568064 5.20588235,6.39230327 5.20588235,7.44284894 L5.20588235,9.0987938 L25.5,9.0987938 L45.7941176,9.0987938 L45.7941176,7.44284894 Z" id="Shape" fill="#E9E9E9"></path>
                    <path d="M8.11764706,19.2125215 C8.06470588,19.0878805 7.8,17.4141298 7.5,15.5089029 C7.2,13.603676 6.91764706,11.8587019 6.88235294,11.6450316 C6.79411765,11.2889144 6.86470588,11.2354968 7.39411765,11.2354968 C7.95882353,11.2354968 7.99411765,11.2711086 8.11764706,12.0545663 L8.22352941,12.85583 L8.96470588,12.8024124 C9.68823529,12.7489948 9.70588235,12.731189 9.86470588,12.0011488 C10.0058824,11.2889144 10.0588235,11.2354968 10.6058824,11.2354968 C10.9411765,11.2354968 11.2058824,11.3245261 11.2058824,11.4135554 C11.2058824,11.5203906 10.9235294,13.3187823 10.5882353,15.4376795 C10.2529412,17.5387708 9.97058824,19.3015508 9.97058824,19.3549684 C9.97058824,19.5508329 8.18823529,19.408386 8.11764706,19.2125215 Z M9.51176471,14.4049397 C9.6,13.9419874 9.56470588,13.9063756 8.98235294,13.9063756 L8.34705882,13.9063756 L8.47058824,14.6720276 C8.52352941,15.0815623 8.68235294,15.9362435 8.78823529,16.5772545 L8.98235294,17.7346353 L9.19411765,16.3101666 C9.31764706,15.5267088 9.45882353,14.6720276 9.51176471,14.4049397 Z" id="Shape" fill="#E9E9E9"></path>
                    <path d="M12.2647059,15.3308443 L12.2647059,11.2354968 L13.4117647,11.2354968 C14.8411765,11.2354968 15.7235294,11.591614 15.9882353,12.2504308 C16.0941176,12.5175187 16.1470588,13.2653647 16.1117647,13.8885698 C16.0588235,14.7788627 15.9529412,15.0815623 15.6529412,15.3308443 C15.2823529,15.6335439 15.2823529,15.6513498 15.6176471,15.9540494 C15.9,16.2033314 15.9705882,16.506031 15.9705882,17.3251005 C15.9705882,17.9126939 15.9,18.5358989 15.7941176,18.7139575 C15.5470588,19.1769098 14.6823529,19.4261918 13.3941176,19.4261918 L12.2647059,19.4261918 L12.2647059,15.3308443 Z M14.7,17.2894888 C14.7705882,16.4526134 14.4705882,16.0430787 13.8176471,16.0430787 C13.5529412,16.0430787 13.5,16.2033314 13.5,17.1292361 L13.5,18.1975876 L14.0823529,18.14417 C14.6117647,18.0907524 14.6470588,18.0551407 14.7,17.2894888 Z M14.6294118,14.6898334 C14.9117647,14.4227455 15.0176471,13.3009765 14.8058824,12.7668007 C14.7352941,12.5887421 14.4882353,12.481907 14.1,12.481907 L13.5,12.481907 L13.5,13.7283171 C13.5,14.9213096 13.5176471,14.9747272 13.9235294,14.9747272 C14.1705882,14.9747272 14.4882353,14.8500862 14.6294118,14.6898334 Z" id="Shape" fill="#E9E9E9"></path>
                    <path d="M17.8235294,18.9988512 C17.2764706,18.4468696 17.1529412,17.5031591 17.2411765,14.6720276 C17.2764706,13.105112 17.3823529,12.2682366 17.5588235,12.0011488 C18.3,10.8437679 20.4529412,11.0396324 20.8941176,12.3216542 C21,12.6421597 21.0882353,13.1941413 21.0882353,13.5680643 C21.0882353,14.244687 21.0705882,14.2624928 20.4705882,14.2624928 C19.8529412,14.2624928 19.8529412,14.2624928 19.8529412,13.4612292 C19.8529412,12.8380241 19.7823529,12.6243538 19.4823529,12.4641011 C18.7764706,12.0901781 18.5294118,12.606548 18.4764706,14.743251 C18.3882353,17.1826536 18.5294118,18.1263642 18.9882353,18.268811 C19.5,18.4290638 19.8529412,18.0551407 19.8529412,17.3607122 C19.8529412,16.7909248 19.8882353,16.755313 20.4705882,16.755313 C21.0352941,16.755313 21.0882353,16.7909248 21.0882353,17.2894888 C21.0882353,18.0373349 20.6647059,18.9988512 20.2411765,19.2303274 C20.0294118,19.3371626 19.5176471,19.4261918 19.0588235,19.4261918 C18.4411765,19.4261918 18.1411765,19.3193567 17.8235294,18.9988512 Z" id="Shape" fill="#E9E9E9"></path>
                    <path d="M32.1352941,18.9810454 C31.9764706,18.7317634 31.6588235,18.5002872 31.4117647,18.4290638 C31.0941176,18.3578403 30.9705882,18.1975876 30.9705882,17.894888 C30.9705882,17.5387708 31.0588235,17.4675474 31.5,17.4675474 L32.0294118,17.4675474 L32.0294118,14.3515221 L32.0294118,11.2354968 L32.6470588,11.2354968 L33.2647059,11.2354968 L33.2647059,15.3308443 L33.2647059,19.4261918 L32.8411765,19.4261918 C32.5941176,19.4261918 32.3117647,19.2481333 32.1352941,18.9810454 Z" id="Shape" fill="#E9E9E9"></path>
                    <path d="M35.8058824,19.0166571 C35.4352941,18.6961516 35.3117647,18.393452 35.2411765,17.6812177 L35.1529412,16.755313 L35.7882353,16.755313 C36.3882353,16.755313 36.4235294,16.7909248 36.4764706,17.396324 C36.5823529,18.6961516 37.6764706,18.6071223 37.6764706,17.3072947 C37.6764706,16.5950603 37.2882353,15.8650201 36.2647059,14.6364159 C35.4352941,13.6392878 35.2058824,13.0695003 35.2058824,12.0189546 L35.2058824,11.217691 L37.0235294,11.2711086 L38.8235294,11.3245261 L38.8764706,11.9121195 L38.9294118,12.481907 L37.6941176,12.481907 C36.0882353,12.481907 36.0705882,12.7133831 37.6058824,14.4761631 C38.5058824,15.4910971 38.9117647,16.4348076 38.9117647,17.4675474 C38.9117647,18.2510052 38.8235294,18.4646755 38.4,18.9098219 C37.7117647,19.5864446 36.5294118,19.6398621 35.8058824,19.0166571 Z" id="Shape" fill="#E9E9E9"></path>
                    <path d="M40.6588235,18.9098219 C40.2529412,18.5002872 40.1470588,18.2331993 40.1470588,17.645606 C40.1470588,16.9155658 40.1647059,16.9155658 40.7294118,16.9689833 C41.2235294,17.0224009 41.2941176,17.0936244 41.3470588,17.5921884 C41.3823529,17.9661114 41.5235294,18.1975876 41.7529412,18.268811 C42.3352941,18.4646755 42.6352941,18.0373349 42.5823529,17.1292361 C42.5294118,16.38139 42.4764706,16.2923607 41.9647059,16.132108 C41.4882353,16.007467 41.3823529,15.882826 41.3823529,15.4732912 C41.3823529,15.0993682 41.4705882,14.9747272 41.7176471,14.9747272 C41.9117647,14.9747272 42.1941176,14.8500862 42.3352941,14.6898334 C42.7235294,14.3159104 42.7235294,12.7846065 42.3352941,12.4641011 C41.9117647,12.1079839 41.4882353,12.481907 41.4176471,13.2653647 C41.3647059,13.8707639 41.3294118,13.9063756 40.7294118,13.9063756 L40.0941176,13.9063756 L40.1823529,12.980471 C40.2529412,12.2682366 40.3764706,11.965537 40.7470588,11.6450316 C41.4176471,11.0752441 42.6,11.0752441 43.2529412,11.6628374 C43.6764706,12.0189546 43.7470588,12.2326249 43.8176471,13.2475589 C43.8705882,14.1912694 43.8176471,14.5473866 43.5529412,15.0281447 C43.2,15.6157381 43.2,15.6335439 43.5176471,16.0252728 C43.7470588,16.3101666 43.8529412,16.7375072 43.8529412,17.4141298 C43.8529412,18.2510052 43.7823529,18.4646755 43.3411765,18.9098219 C42.9176471,19.3371626 42.6705882,19.4261918 42,19.4261918 C41.3294118,19.4261918 41.0823529,19.3371626 40.6588235,18.9098219 Z" id="Shape" fill="#E9E9E9"></path>
                    <polygon id="Shape" fill="#E9E9E9" points="24.4411765 15.3308443 24.4411765 14.7966686 25.5882353 14.7966686 26.7352941 14.7966686 26.7352941 15.3308443 26.7352941 15.8650201 25.5882353 15.8650201 24.4411765 15.8650201"></polygon>
                </g>
            </g>
        </g>
    </g>
</svg>