<?xml version="1.0" encoding="UTF-8"?>
<svg width="80px" height="80px" viewBox="0 0 80 80" version="1.1" xmlns="http://www.w3.org/2000/svg" xmlns:xlink="http://www.w3.org/1999/xlink">
    <!-- Generator: Sketch 51.3 (57544) - http://www.bohemiancoding.com/sketch -->
    <title>Oval 7</title>
    <desc>Created with Sketch.</desc>
    <defs></defs>
    <g id="Page-1" stroke="none" stroke-width="1" fill="none" fill-rule="evenodd">
        <g id="Artboard-9" transform="translate(-240.000000, -142.000000)">
            <circle id="Oval-7" cx="280" cy="182" r="40"></circle>
            <g id="Bitmap5" transform="translate(253.000000, 160.000000)" fill-rule="nonzero">
                <g id="Group" transform="translate(27.000000, 22.000000) scale(-1, 1) rotate(-180.000000) translate(-27.000000, -22.000000) ">
                    <path d="M14.4507042,43.5522664 C12.6093403,43.0638298 10.2075612,41.7816836 8.86656783,40.5809436 C7.80578206,39.6447734 7.58561898,39.1766883 8.04595997,38.7086031 C8.44625649,38.3015726 8.80652335,38.4236818 10.107487,39.4819611 C11.5485545,40.6419981 13.790215,41.7613321 15.3713862,42.107308 C16.8524833,42.4125809 19.4744255,42.3922294 20.9755374,42.0259019 C22.5967383,41.6392229 24.6382506,40.5809436 26.079318,39.3802035 C27.2601927,38.4033302 27.7205337,38.3015726 28.1008154,38.9324699 C28.4010378,39.400555 28.1408451,39.7668825 26.7398073,40.947271 C23.4974055,43.613321 18.5937732,44.6512488 14.4507042,43.5522664 Z" id="Shape" fill="#18E2CC"></path>
                    <path d="M16.4121572,39.0545791 C14.9710897,38.8103608 13.0696812,37.8945421 12.0289103,36.9380204 C11.1882876,36.1646623 11.028169,35.6762257 11.4484804,35.2488437 C11.828762,34.8621647 12.1690141,34.9639223 13.209785,35.7983349 C15.9117865,37.9759482 19.9347665,38.0370028 22.6167532,35.9611471 C23.097109,35.5948196 23.5974796,35.2284921 23.7375834,35.106383 C24.0978503,34.8418131 24.698295,35.2081406 24.7783543,35.7576318 C24.9184581,36.7548566 21.8161601,38.6679001 19.414381,39.0545791 C17.9532987,39.2987974 17.9332839,39.2987974 16.4121572,39.0545791 Z" id="Shape" fill="#18E2CC"></path>
                    <path d="M42.1111935,37.3450509 C41.8510007,36.9176688 41.8109711,36.5513414 41.9110452,35.4727105 C42.1912528,32.7456059 43.312083,31.5448659 45.8339511,31.3413506 L47.1349148,31.239593 L49.7968866,26.7622572 C53.2594514,20.9010176 53.2794663,20.9620722 48.6560415,19.8223867 C47.0748703,19.4560592 45.6738325,19.1304348 45.5537435,19.1304348 C45.4136397,19.1304348 45.153447,19.679926 44.9733136,20.3515264 C44.352854,22.5901943 43.6323202,22.8954672 40.7702001,22.1424607 L38.8087472,21.613321 L38.4084507,22.4884366 C37.5077835,24.4218316 35.0859896,25.86679 33.2246108,25.5615171 C32.8042995,25.5004625 29.8621201,24.7881591 26.6797628,24.0148011 C23.5174203,23.2210916 19.8346924,22.3052729 18.5137139,21.9796485 C8.1460341,19.4357077 0.500370645,17.4616096 0.260192735,17.2784459 C0.120088955,17.1563367 0,16.9324699 0,16.8103608 C0,16.6679001 1.02075612,14.9176688 2.26167532,12.9028677 L4.5033358,9.2599445 L6.04447739,9.15818686 C6.88510007,9.09713228 7.6056338,9.01572618 7.66567828,8.9546716 C7.70570793,8.89361702 8.08598962,7.67252544 8.46627131,6.20721554 C8.88658265,4.72155412 9.34692365,3.45975948 9.52705708,3.3172988 C9.70719051,3.17483811 10.227576,3.13413506 10.8680504,3.19518964 L11.9088213,3.29694727 L12.5292809,2.38112858 C13.6501112,0.773358002 15.0311342,0 16.8124537,0 C17.8332098,0 37.7479615,4.92506938 38.6486286,5.41350601 C40.4299481,6.3293247 41.4306894,8.03885291 41.4306894,10.1961147 L41.4306894,11.5189639 L42.8917717,11.8852914 C46.2942921,12.760407 46.7346182,13.2895467 46.1541883,15.813136 C45.95404,16.6475486 45.8339511,17.359852 45.8539659,17.400555 C45.8939956,17.4412581 47.3150482,17.8075856 48.9762787,18.2146161 C50.7375834,18.6419981 52.3187546,19.1507863 52.6790215,19.4153562 C53.5196442,19.9851989 54.1401038,21.4505088 53.9599703,22.4273821 C53.8999259,22.8140611 52.7590808,24.9509713 51.4381023,27.1896392 L49.0363232,31.239593 L49.9570052,31.3820537 C51.9584878,31.6873265 53.2394366,33.4579093 53.2394366,35.9611471 C53.2394366,37.2025902 53.1793921,37.46716 52.8591549,37.6503238 C52.618977,37.7724329 50.5174203,37.853839 47.455152,37.853839 L42.4314307,37.853839 L42.1111935,37.3450509 Z M51.6382506,35.5134135 C51.6382506,35.106383 51.4981468,34.5161887 51.3380282,34.1905643 C50.8176427,33.172988 50.1371386,32.9694727 47.4151223,32.9694727 L44.9933284,32.9694727 L44.3128243,33.6614246 C43.7323944,34.2516189 43.6323202,34.4958372 43.6323202,35.2895467 L43.6323202,36.2257169 L47.6352854,36.2257169 L51.6382506,36.2257169 L51.6382506,35.5134135 Z M35.4462565,23.506013 C36.6271312,22.8751156 36.9473684,22.1424607 38.4284655,16.3829787 C39.1890289,13.3506013 39.8295033,10.4810361 39.8295033,9.99259944 C39.8295033,8.73080481 39.06894,7.4893617 37.9881394,6.96022202 C37.1475167,6.57354302 24.4781319,3.33765032 24.3180133,3.48011101 C24.2579689,3.56151711 20.0148258,19.9648474 19.9547813,20.4329325 C19.9347665,20.5346901 22.9369904,21.3894542 26.6197183,22.3052729 C33.5648629,24.0555042 34.2053373,24.1572618 35.4462565,23.506013 Z M43.1519644,20.7382054 C43.432172,20.2701203 44.813195,14.3478261 44.6730912,14.2053654 C44.4929577,14.0425532 41.6508525,13.2284921 41.2105263,13.2284921 C40.9703484,13.2284921 40.6901408,14.0018501 40.0296516,16.586494 C39.5693106,18.4384829 39.2090437,19.9851989 39.2490734,20.0259019 C39.3491475,20.107308 42.4514455,20.9213691 42.7716827,20.9417206 C42.8917717,20.9620722 43.0719051,20.8603145 43.1519644,20.7382054 Z M18.6738325,18.7844588 C18.8539659,18.0111008 19.8146775,14.2460685 20.8154188,10.39963 C21.7961453,6.55319149 22.6167532,3.3172988 22.6167532,3.17483811 C22.6167532,2.88991674 17.813195,1.62812211 16.7524092,1.62812211 C15.7916976,1.62812211 14.5707932,2.25901943 14.0303929,3.0120259 C13.670126,3.54116559 12.409192,7.73358002 12.409192,8.42553191 C12.409192,8.6493987 12.5893254,8.6493987 13.3098592,8.48658649 C13.9703484,8.32377428 14.2705708,8.34412581 14.5107487,8.54764107 C14.8710156,8.85291397 14.9110452,9.44310823 14.5507784,9.74838113 C14.0504077,10.1554117 11.5285397,10.5420907 8.46627131,10.7049029 L5.40400297,10.8473636 L3.8028169,13.493062 C2.92216457,14.9380204 2.22164566,16.1591119 2.26167532,16.199815 C2.30170497,16.240518 5.70422535,17.0952821 9.82727947,18.13321 C13.9303188,19.1507863 17.352854,20.0259019 17.3928836,20.066605 C17.4329133,20.107308 17.6730912,20.1480111 17.9132691,20.1480111 C18.273536,20.1480111 18.3936249,19.9444958 18.6738325,18.7844588 Z M11.0081542,7.18408881 C11.2683469,6.18686401 11.5085248,5.27104533 11.5685693,5.14893617 C11.6286138,4.96577243 11.4484804,4.88436633 11.0681987,4.88436633 C10.5077835,4.88436633 10.4677539,4.94542091 10.0474426,6.61424607 C9.80726464,7.55041628 9.54707191,8.46623497 9.48702743,8.6493987 C9.3869533,8.87326549 9.50704225,8.9546716 9.94736842,8.9546716 C10.5277984,8.9546716 10.567828,8.91396855 11.0081542,7.18408881 Z" id="Shape" fill="#E9E9E9"></path>
                    <path d="M16.4922165,33.8649399 C15.5315048,33.5189639 14.5107487,32.5217391 14.6708673,32.0740056 C14.93106,31.4024052 15.51149,31.3413506 16.3320979,31.9111933 C17.352854,32.6234968 18.7138621,32.6641998 19.6145293,31.9925994 C20.3150482,31.4634598 20.9755374,31.4634598 21.2957746,32.012951 C21.4759081,32.3182239 21.3958488,32.5013876 20.7753892,33.0712303 C19.6145293,34.1498612 18.0934025,34.4347826 16.4922165,33.8649399 Z" id="Shape" fill="#18E2CC"></path>
                    <path d="M17.232765,29.1230342 C16.9125278,28.53284 16.9525574,28.186864 17.4128984,27.7798335 C18.2335063,27.026827 19.4544107,28.1258094 18.8739807,29.0823312 C18.5537435,29.5911193 17.4929577,29.6114709 17.232765,29.1230342 Z" id="Shape" fill="#18E2CC"></path>
                </g>
            </g>
        </g>
    </g>
</svg>