<?xml version="1.0" encoding="UTF-8"?>
<svg width="80px" height="80px" viewBox="0 0 80 80" version="1.1" xmlns="http://www.w3.org/2000/svg" xmlns:xlink="http://www.w3.org/1999/xlink">
    <!-- Generator: Sketch 51.3 (57544) - http://www.bohemiancoding.com/sketch -->
    <title>Oval 7</title>
    <desc>Created with Sketch.</desc>
    <defs></defs>
    <g id="Page-1" stroke="none" stroke-width="1" fill="none" fill-rule="evenodd">
        <g id="Artboard-9" transform="translate(-345.000000, -142.000000)">
            <circle id="Oval-7" cx="385" cy="182" r="40"></circle>
            <g id="Bitmap2" transform="translate(363.000000, 160.000000)" fill-rule="nonzero">
                <g id="Group" transform="translate(22.500000, 22.500000) scale(-1, 1) rotate(-180.000000) translate(-22.500000, -22.500000) ">
                    <path d="M0.230769231,44.7692308 C0.0769230769,44.6153846 0,43.6153846 0,41.5192308 C0,38.0576923 0,38.0576923 1.65384615,37.9230769 L2.69230769,37.8461538 L2.69230769,22.4807692 L2.69230769,7.11538462 L1.65384615,7.11538462 C0.0384615385,7.11538462 0,7.03846154 0,3.55769231 C0,1.13461538 0.0576923077,0.557692308 0.307692308,0.307692308 C0.557692308,0.0576923077 1.11538462,0 3.44230769,0 C6.84615385,0 7,0.0576923077 7.03846154,1.57692308 L7.07692308,2.59615385 L8.69230769,2.65384615 C9.90384615,2.69230769 10.3461538,2.76923077 10.5192308,3.01923077 C11.2115385,3.92307692 10.5576923,4.42307692 8.67307692,4.42307692 L7.15384615,4.42307692 L7.07692308,5.5 C6.96153846,6.82692308 6.65384615,7.11538462 5.34615385,7.11538462 L4.42307692,7.11538462 L4.42307692,22.4807692 L4.42307692,37.8461538 L5.48076923,37.9230769 C6.07692308,37.9807692 6.65384615,38.1153846 6.76923077,38.2307692 C6.88461538,38.3461538 7.01923077,38.9230769 7.07692308,39.5192308 L7.15384615,40.5769231 L22.5192308,40.5769231 L37.8846154,40.5769231 L37.8846154,39.6538462 C37.8846154,38.3461538 38.1730769,38.0384615 39.5,37.9230769 L40.5769231,37.8461538 L40.5769231,22.4807692 L40.5769231,7.11538462 L39.6153846,7.11538462 C38.3076923,7.11538462 37.8846154,6.69230769 37.8846154,5.38461538 L37.8846154,4.42307692 L26.9038462,4.42307692 C19.7115385,4.42307692 15.8076923,4.34615385 15.5576923,4.23076923 C15.1538462,4 15.0769231,3.26923077 15.4230769,2.92307692 C15.5961538,2.75 18.3846154,2.69230769 26.7692308,2.69230769 L37.8846154,2.69230769 L37.8846154,1.76923077 C37.8846154,1.25 38.0192308,0.673076923 38.1923077,0.423076923 C38.4615385,0.0192307692 38.5961538,0 41.4230769,0 C44.0192308,0 44.4038462,0.0384615385 44.6730769,0.346153846 C44.9423077,0.653846154 45,1.17307692 45,3.61538462 C45,6.40384615 44.9807692,6.53846154 44.5769231,6.80769231 C44.3269231,6.98076923 43.75,7.11538462 43.2307692,7.11538462 L42.3076923,7.11538462 L42.3076923,22.4807692 L42.3076923,37.8461538 L43.3846154,37.9230769 C44.9423077,38.0576923 45,38.1730769 45,41.5576923 C45,43.8846154 44.9423077,44.4423077 44.6923077,44.6923077 C44.4423077,44.9423077 43.8653846,45 41.4423077,45 C37.9615385,45 37.8846154,44.9615385 37.8846154,43.3461538 L37.8846154,42.3076923 L22.4807692,42.3461538 L7.07692308,42.4038462 L7.03846154,43.3846154 C7,44.9807692 6.94230769,45 3.48076923,45 C1.38461538,45 0.384615385,44.9230769 0.230769231,44.7692308 Z M5.19230769,41.5384615 L5.19230769,39.8076923 L3.46153846,39.8076923 L1.73076923,39.8076923 L1.73076923,41.5384615 L1.73076923,43.2692308 L3.46153846,43.2692308 L5.19230769,43.2692308 L5.19230769,41.5384615 Z M43.2692308,41.5384615 L43.2692308,39.8076923 L41.4423077,39.8076923 L39.6153846,39.8076923 L39.6153846,41.5384615 L39.6153846,43.2692308 L41.4423077,43.2692308 L43.2692308,43.2692308 L43.2692308,41.5384615 Z M5.19230769,3.55769231 L5.19230769,1.73076923 L3.46153846,1.73076923 L1.73076923,1.73076923 L1.73076923,3.55769231 L1.73076923,5.38461538 L3.46153846,5.38461538 L5.19230769,5.38461538 L5.19230769,3.55769231 Z M43.1730769,3.55769231 L43.1730769,1.82692308 L41.4423077,1.82692308 L39.7115385,1.82692308 L39.6538462,3.34615385 C39.6153846,4.19230769 39.6346154,4.98076923 39.6923077,5.13461538 C39.7692308,5.34615385 40.1923077,5.38461538 41.4807692,5.34615385 L43.1730769,5.28846154 L43.1730769,3.55769231 Z" id="Shape" fill="#18E2CC"></path>
                    <path d="M17.6730769,31.7692308 C15.1923077,30.3269231 12.9230769,28.9807692 12.6346154,28.7884615 L12.1153846,28.4423077 L12.1538462,22.4615385 L12.2115385,16.4615385 L17.1153846,13.6153846 C19.8076923,12.0576923 22.2115385,10.7692308 22.4615385,10.7692308 C22.9230769,10.7692308 32.4807692,16.1923077 32.7307692,16.5961538 C32.8076923,16.7307692 32.8846154,19.3846154 32.8846154,22.5192308 C32.8846154,26.7692308 32.8269231,28.2692308 32.6538462,28.5 C32.2884615,28.9423077 22.7307692,34.4423077 22.3653846,34.4038462 C22.2884615,34.4038462 20.1730769,33.2115385 17.6730769,31.7692308 Z M26.3461538,30.2692308 C28.4615385,29.0384615 30.1923077,28 30.1538462,27.9807692 C29.9038462,27.7307692 22.6730769,23.6538462 22.4807692,23.6538462 C22.0769231,23.6538462 14.7884615,27.9423077 14.9423077,28.0961538 C15.0576923,28.2115385 22.2884615,32.4423077 22.4423077,32.5 C22.4615385,32.5 24.2115385,31.5 26.3461538,30.2692308 Z M17.8076923,24.1923077 L21.5384615,22.0384615 L21.5384615,17.5576923 L21.5384615,13.0961538 L17.75,15.2884615 L13.9423077,17.4807692 L13.8846154,21.9230769 C13.8653846,24.3461538 13.8846154,26.3461538 13.9423077,26.3461538 C14.0192308,26.3461538 15.75,25.3846154 17.8076923,24.1923077 Z M31.1538462,21.9423077 L31.1538462,17.5576923 L27.4230769,15.4038462 C25.3846154,14.2307692 23.5961538,13.2692308 23.4807692,13.2692308 C23.3269231,13.2692308 23.2692308,14.4615385 23.3076923,17.6346154 L23.3653846,22 L27.1153846,24.1730769 C29.1730769,25.3653846 30.9230769,26.3461538 31.0192308,26.3461538 C31.0961538,26.3461538 31.1538462,24.3653846 31.1538462,21.9423077 Z" id="Shape" fill="#E9E9E9"></path>
                    <path d="M12.3461538,4.19230769 C12.0576923,3.90384615 12.0576923,3.21153846 12.3461538,2.92307692 C12.8653846,2.40384615 13.8461538,2.78846154 13.8461538,3.48076923 C13.8461538,4.23076923 12.8461538,4.69230769 12.3461538,4.19230769 Z" id="Shape" fill="#E9E9E9"></path>
                </g>
            </g>
        </g>
    </g>
</svg>