<?xml version="1.0" encoding="UTF-8"?>
<svg width="80px" height="80px" viewBox="0 0 80 80" version="1.1" xmlns="http://www.w3.org/2000/svg" xmlns:xlink="http://www.w3.org/1999/xlink">
    <!-- Generator: Sketch 51.3 (57544) - http://www.bohemiancoding.com/sketch -->
    <title>Oval 7</title>
    <desc>Created with Sketch.</desc>
    <defs></defs>
    <g id="Page-1" stroke="none" stroke-width="1" fill="none" fill-rule="evenodd">
        <g id="Artboard-9" transform="translate(-547.000000, -144.000000)">
            <circle id="Oval-7" cx="587" cy="184" r="40"></circle>
            <g id="download" transform="translate(562.000000, 159.000000)" fill-rule="nonzero">
                <path d="M12.7503188,40 C13.2205707,40 13.6001677,39.6273914 13.6001677,39.1668056 L13.6001677,29.1666479 L16.1501511,29.1666479 C16.6204029,29.1666479 17,28.7940393 17,28.3334535 L17,22.5001689 C17,20.2025326 15.0933995,18.3332958 12.7498363,18.3332958 L12.2908071,18.3332958 C13.1016235,17.4473059 13.5997427,16.2815049 13.5997427,15.0000225 C13.5997427,12.2426787 11.3122357,10 8.499776,10 C5.68731634,10 3.39980932,12.2426787 3.39980932,15.0000225 C3.39980932,16.2815049 3.89787107,17.4476663 4.70874486,18.3332958 L4.25016369,18.3332958 C1.90660046,18.3332958 0,20.2025326 0,22.5001689 L0,28.3334535 C0,28.7944898 0.380056529,29.1666479 0.849848947,29.1666479 L3.39983229,29.1666479 L3.39983229,39.1668056 C3.39983229,39.6278419 3.77988882,40 4.24968124,40 L12.7503188,40 Z M5.10025386,14.9998874 C5.10025386,13.161508 6.62491393,11.6666141 8.50015507,11.6666141 C10.3752813,11.6666141 11.9000563,13.1613954 11.9000563,14.9998874 C11.9000563,16.8383794 10.3753962,18.3331607 8.50015507,18.3331607 C6.6250288,18.3336007 5.10025386,16.8383794 5.10025386,14.9998874 Z M7.65023721,29.167256 L7.65023721,38.3341517 L5.10025386,38.3341517 L5.10025386,22.5000338 L3.40007352,22.5000338 L3.40007352,27.5000563 L1.69989317,27.5000563 L1.69989317,22.5000338 C1.69989317,21.1218123 2.84409467,20.0000225 4.24987652,20.0000225 L12.7497444,20.0000225 C14.1555148,20.0000225 15.2997278,21.1218011 15.2997278,22.5000338 L15.2997278,27.5000563 L13.5995474,27.5000563 L13.5995474,22.5000338 L11.8993671,22.5000338 L11.8993671,38.3330255 L9.34938373,38.3330255 L9.34983241,29.1664677 L7.65023721,29.167256 Z" id="Shape" fill="#E9E9E9"></path>
                <path d="M45.7497405,18.3332958 L45.2907148,18.3332958 C46.1015251,17.4473059 46.5996405,16.2815049 46.5996405,15.0000225 C46.5996405,12.2426787 44.3121507,10 41.4997121,10 C38.6872736,10 36.3997838,12.2426787 36.3997838,15.0000225 C36.3997838,16.2815049 36.8978418,17.4476663 37.7087095,18.3332958 L37.2501318,18.3332958 C34.9065861,18.3332958 33,20.2025326 33,22.5001689 L33,28.3334535 C33,28.7944898 33.3800537,29.1666479 33.8498426,29.1666479 L36.3998067,29.1666479 L36.3998067,39.1668056 C36.3998067,39.6278419 36.7798604,40 37.2496493,40 L45.7494533,40 C46.2197017,40 46.5992959,39.6273914 46.5992959,39.1668056 L46.6001933,29.1666479 L49.1501574,29.1666479 C49.6204058,29.1666479 50,28.7940393 50,28.3334535 L50,22.5001689 C50,20.2025326 48.0934139,18.3332958 45.7498682,18.3332958 L45.7497405,18.3332958 Z M38.1001926,14.9995721 C38.1001926,13.1611927 39.6248412,11.6662988 41.5000682,11.6662988 C43.3751804,11.6662988 44.8999439,13.1610801 44.8999439,14.9995721 C44.8999439,16.838064 43.3752953,18.3328453 41.5000682,18.3328453 C39.624956,18.3332853 38.1001926,16.838064 38.1001926,14.9995721 Z M48.2997047,27.5001915 L46.5995371,27.5001915 L46.5995371,22.5001689 L44.8993696,22.5001689 L44.8993696,38.3331607 L42.3494054,38.3331607 L42.349854,29.1666028 L40.6496865,29.1666028 L40.6496865,38.3334985 L38.0997223,38.3334985 L38.1001711,22.4993806 L36.4000035,22.4993806 L36.4000035,27.4994031 L34.6998359,27.4994031 L34.6998359,22.4993806 C34.6998359,21.1211592 35.8440288,19.9993693 37.2498001,19.9993693 L45.7496042,19.9993693 C47.155364,19.9993693 48.2995683,21.1211479 48.2995683,22.4993806 L48.2997047,27.5001915 Z" id="Shape" fill="#E9E9E9"></path>
                <path d="M41.1405409,4.00001081 L41.1405409,5.26855135 L39.1877534,3.43406486 L37.9834443,4.56541622 L41.3895734,7.7652 C41.555898,7.92144865 41.7739165,8 41.9919466,8 C42.209965,8 42.4279951,7.92145297 42.5938709,7.76562162 L46,4.56583784 L44.7956909,3.43448649 L42.8433637,5.26897297 L42.8433637,4 C42.8433637,1.79437838 40.9332708,0 38.5854147,0 L19,0.000422378378 L19,1.60053049 L38.5854147,1.60053049 C39.9942204,1.60010822 41.1405294,2.67696292 41.1405294,3.99998995 L41.1405409,4.00001081 Z" id="Shape" fill="#18E2CC"></path>
                <path d="M8.66683559,3.99956757 C8.66683559,2.67654054 9.78859646,1.59967568 11.1668074,1.59967568 L17,1.59967568 L17,0 L11.1668074,0 C8.86920729,0 7,1.79437838 7,4 L7,8 L8.66683559,8 L8.66683559,3.99956757 Z" id="Shape" fill="#18E2CC"></path>
                <path d="M8.73720125,45.9999392 L8.73720125,44.7313794 L10.6408546,46.5658937 L11.814862,45.4345252 L8.49443469,42.2346928 C8.16971759,41.9217691 7.64516681,41.9217691 7.32042728,42.2346928 L4,45.4345252 L5.17400741,46.5658937 L7.07721198,44.7313794 L7.07721198,45.9999392 C7.07721198,48.2055943 8.93924495,50 11.2280265,50 L27,50 L27,48.3998676 L11.2269047,48.3998676 C9.85399473,48.3998676 8.73652814,47.3234188 8.73652814,45.9999392 L8.73720125,45.9999392 Z" id="Shape" fill="#18E2CC"></path>
                <polygon id="Shape" fill="#18E2CC" points="28.6 48.2 30.6 48.2 30.6 50.2 28.6 50.2"></polygon>
                <path d="M40.3331644,46 C40.3331644,47.323027 39.2114035,48.3998919 37.8331926,48.3998919 L32,48.3998919 L32,50 L37.8331926,50 C40.1307927,50 42,48.2056216 42,46 L42,42 L40.3331644,42 L40.3331644,46 Z" id="Shape" fill="#18E2CC"></path>
            </g>
        </g>
    </g>
</svg>