<?xml version="1.0" encoding="UTF-8"?>
<svg width="739px" height="160px" viewBox="0 0 739 160" version="1.1" xmlns="http://www.w3.org/2000/svg" xmlns:xlink="http://www.w3.org/1999/xlink">
    <title>Group</title>
    <g id="Symbols" stroke="none" stroke-width="1" fill="none" fill-rule="evenodd">
        <g id="SierraOne-Logo-Light" fill-rule="nonzero">
            <g id="Group">
                <path d="M63.5900963,19.8450899 C62.3562586,19.2494237 60.7269601,18.5753804 58.7022008,17.8229599 C56.6774415,17.0705394 54.3837689,16.3573075 51.8211829,15.6832642 C49.258597,15.0092208 46.474553,14.4449055 43.4690509,13.9903181 C40.4635488,13.5357308 37.3789546,13.3084371 34.2152682,13.3084371 C31.6843191,13.3084371 29.5251032,13.3868142 27.7376204,13.5435685 C25.9501376,13.7003227 24.4473865,13.9041033 23.2293673,14.1549101 C22.011348,14.4057169 21.0464237,14.6957123 20.3345942,15.0248963 C19.6227648,15.3540802 19.0770289,15.6911019 18.6973865,16.0359613 C18.3177442,16.3808207 18.0725585,16.72568 17.9618294,17.0705394 C17.8511004,17.4153988 17.7957359,17.7289073 17.7957359,18.011065 C17.7957359,18.9515906 18.2702889,19.7745505 19.2193948,20.4799447 C20.1685007,21.1853389 21.4656121,21.8123559 23.110729,22.3609959 C24.7558459,22.9096358 26.6698762,23.4269249 28.8528198,23.9128631 C31.0357634,24.3988013 33.3531637,24.9004149 35.8050206,25.417704 C38.2568776,25.9349931 40.7878267,26.4993084 43.397868,27.1106501 C46.0079092,27.7219917 48.5388583,28.4352236 50.9907153,29.2503458 C53.4425722,30.065468 55.7599725,31.0138313 57.9429161,32.0954357 C60.1258597,33.1770401 62.03989,34.4389119 63.6850069,35.8810512 C65.3301238,37.3231904 66.6272352,38.9847856 67.5763411,40.8658368 C68.525447,42.746888 69,44.8944214 69,47.3084371 C69,50.4121715 68.4463549,53.076994 67.3390646,55.3029046 C66.2317744,57.5288151 64.752751,59.4098663 62.9019945,60.9460581 C61.051238,62.4822499 58.9078404,63.7127709 56.4718019,64.637621 C54.0357634,65.5624712 51.4810867,66.2757031 48.8077717,66.7773167 C46.1344567,67.2789304 43.4295048,67.6081143 40.6929161,67.7648686 C37.9563274,67.9216229 35.3541953,68 32.8865199,68 C26.4325997,68 20.4611417,67.4748732 14.9721458,66.4246196 C9.48314993,65.3743661 4.63480055,64.065468 0.427097662,62.4979253 L0.427097662,47.0733057 C4.76134801,49.4559705 9.70460798,51.3213462 15.2568776,52.6694329 C20.8091472,54.0175196 26.7489684,54.6915629 33.0763411,54.6915629 C36.8094911,54.6915629 39.8545392,54.4956201 42.2114856,54.1037344 C44.5684319,53.7118488 46.4112792,53.2102351 47.7400275,52.5988935 C49.0687758,51.9875519 49.9704264,51.3213462 50.4449794,50.6002766 C50.9195323,49.879207 51.1568088,49.1894882 51.1568088,48.5311203 C51.1568088,47.4965422 50.6822558,46.5952052 49.7331499,45.8271093 C48.784044,45.0590134 47.4869326,44.38497 45.8418157,43.8049793 C44.1966988,43.2249885 42.2826685,42.692024 40.0997249,42.2060858 C37.9167813,41.7201475 35.599381,41.2342093 33.1475241,40.7482711 C30.6956671,40.2623329 28.1726272,39.7372061 25.5784044,39.1728907 C22.9841816,38.6085754 20.4611417,37.9423698 18.0092847,37.1742739 C15.5574278,36.406178 13.2400275,35.5126787 11.0570839,34.4937759 C8.8741403,33.4748732 6.96011004,32.2678654 5.31499312,30.8727524 C3.6698762,29.4776395 2.37276479,27.8630705 1.42365887,26.0290456 C0.474552957,24.1950207 0,22.0710005 0,19.6569848 C0,16.8040572 0.506189821,14.3430152 1.51856946,12.2738589 C2.53094911,10.2047026 3.89924347,8.44121715 5.62345254,6.98340249 C7.34766162,5.52558783 9.34078404,4.34209313 11.6028198,3.4329184 C13.8648556,2.52374366 16.2455296,1.81834947 18.7448418,1.31673582 C21.2441541,0.815122176 23.7751032,0.470262794 26.3376891,0.282157676 C28.9002751,0.0940525588 31.3363136,0 33.6458047,0 C36.1767538,0 38.7788858,0.125403412 41.4522008,0.376210235 C44.1255158,0.627017059 46.7592847,0.979714154 49.3535076,1.43430152 C51.9477304,1.88888889 54.4549519,2.41401568 56.8751719,3.00968188 C59.295392,3.60534809 61.5337001,4.23236515 63.5900963,4.89073306 L63.5900963,19.8450899 Z" id="Path" fill="#EEEEEE"></path>
                <polygon id="Path" fill="#EEEEEE" points="85 67 85 2 103 2 103 67"></polygon>
                <polygon id="Path" fill="#EEEEEE" points="123 67 123 2 188.342349 2 188.342349 15.8609898 140.897509 15.8609898 140.897509 26.5997089 185.899644 26.5997089 185.899644 40.4606987 140.897509 40.4606987 140.897509 53.1390102 189 53.1390102 189 67"></polygon>
                <path d="M223.568881,67 L206,67 L206,2 L250.04059,2 C254.776138,2 258.793461,2.48884037 262.092558,3.46652111 C265.391657,4.44420184 268.075134,5.83187773 270.142988,7.62954876 C272.210845,9.4272198 273.710434,11.5954634 274.641759,14.1342795 C275.573083,16.6730956 276.038745,19.503639 276.038745,22.6259098 C276.038745,25.3697234 275.65201,27.7666181 274.878536,29.8165939 C274.105064,31.8665696 273.063244,33.624818 271.753075,35.0913392 C270.442907,36.5578603 268.919639,37.7957302 267.183272,38.8049491 C265.446904,39.8141679 263.615826,40.6499272 261.690037,41.3122271 L283,67 L262.447724,67 L242.747847,43.062591 L223.568881,43.062591 L223.568881,67 Z M258.280443,22.5312955 C258.280443,21.269772 258.114698,20.197477 257.783211,19.3144105 C257.451722,18.431344 256.875564,17.7138525 256.054736,17.161936 C255.233907,16.6100194 254.136838,16.2079088 252.763531,15.9556041 C251.390221,15.7032994 249.677532,15.577147 247.625461,15.577147 L223.568881,15.577147 L223.568881,29.485444 L247.625461,29.485444 C249.677532,29.485444 251.390221,29.3592916 252.763531,29.1069869 C254.136838,28.8546822 255.233907,28.4525716 256.054736,27.900655 C256.875564,27.3487385 257.451722,26.631247 257.783211,25.7481805 C258.114698,24.865114 258.280443,23.792819 258.280443,22.5312955 Z" id="Shape" fill="#EEEEEE"></path>
                <path d="M312.568881,67 L295,67 L295,2 L339.04059,2 C343.776138,2 347.793461,2.48884037 351.092558,3.46652111 C354.391657,4.44420184 357.075134,5.83187773 359.142988,7.62954876 C361.210845,9.4272198 362.710434,11.5954634 363.641759,14.1342795 C364.573083,16.6730956 365.038745,19.503639 365.038745,22.6259098 C365.038745,25.3697234 364.65201,27.7666181 363.878536,29.8165939 C363.105064,31.8665696 362.063244,33.624818 360.753075,35.0913392 C359.442907,36.5578603 357.919639,37.7957302 356.183272,38.8049491 C354.446904,39.8141679 352.615826,40.6499272 350.690037,41.3122271 L372,67 L351.447724,67 L331.747847,43.062591 L312.568881,43.062591 L312.568881,67 Z M347.280443,22.5312955 C347.280443,21.269772 347.114698,20.197477 346.783211,19.3144105 C346.451722,18.431344 345.875564,17.7138525 345.054736,17.161936 C344.233907,16.6100194 343.136838,16.2079088 341.763531,15.9556041 C340.390221,15.7032994 338.677532,15.577147 336.625461,15.577147 L312.568881,15.577147 L312.568881,29.485444 L336.625461,29.485444 C338.677532,29.485444 340.390221,29.3592916 341.763531,29.1069869 C343.136838,28.8546822 344.233907,28.4525716 345.054736,27.900655 C345.875564,27.3487385 346.451722,26.631247 346.783211,25.7481805 C347.114698,24.865114 347.280443,23.792819 347.280443,22.5312955 Z" id="Shape" fill="#EEEEEE"></path>
                <path d="M436.491901,54.7001456 L400.508099,54.7001456 L394.448164,67 L375,67 L408.775918,2 L428.224082,2 L462,67 L442.551836,67 L436.491901,54.7001456 Z M406.75594,42.0218341 L430.338013,42.0218341 L418.593952,18.084425 L406.75594,42.0218341 Z" id="Shape" fill="#EEEEEE"></path>
                <path d="M556,34 C556,39.549101 554.980392,44.4476717 552.941176,48.6957123 C550.901961,52.9437529 547.984314,56.494237 544.188235,59.3471646 C540.392157,62.2000922 535.788235,64.3554633 530.376471,65.813278 C524.964705,67.2710927 518.886275,68 512.141176,68 C505.396078,68 499.30196,67.2710927 493.858824,65.813278 C488.415686,64.3554633 483.780392,62.2000922 479.952941,59.3471646 C476.12549,56.494237 473.176471,52.9437529 471.105882,48.6957123 C469.035294,44.4476717 468,39.549101 468,34 C468,28.450899 469.035294,23.5523283 471.105882,19.3042877 C473.176471,15.0562471 476.12549,11.505763 479.952941,8.65283541 C483.780392,5.79990779 488.415686,3.64453665 493.858824,2.18672199 C499.30196,0.728907331 505.396078,0 512.141176,0 C518.886275,0 524.964705,0.728907331 530.376471,2.18672199 C535.788235,3.64453665 540.392157,5.79990779 544.188235,8.65283541 C547.984314,11.505763 550.901961,15.0562471 552.941176,19.3042877 C554.980392,23.5523283 556,28.450899 556,34 Z M538.352941,34 C538.352941,31.5859843 537.968628,29.1798064 537.199999,26.7814661 C536.431373,24.3831259 535.066666,22.2277547 533.105883,20.3153527 C531.145098,18.4029507 528.470588,16.8510834 525.082353,15.659751 C521.694118,14.4684186 517.380392,13.8727524 512.141176,13.8727524 C508.627451,13.8727524 505.537255,14.1470724 502.870588,14.6957123 C500.203922,15.2443522 497.898039,16.0046104 495.952941,16.9764869 C494.007843,17.9483633 492.376471,19.0848317 491.058824,20.3858921 C489.741176,21.6869525 488.690196,23.0820655 487.905882,24.571231 C487.121569,26.0603965 486.564705,27.6122637 486.235295,29.2268326 C485.905882,30.8414016 485.741176,32.4324574 485.741176,34 C485.741176,35.5988935 485.905882,37.2134624 486.235295,38.8437068 C486.564705,40.4739511 487.121569,42.0336561 487.905882,43.5228216 C488.690196,45.0119871 489.741176,46.3992623 491.058824,47.6846473 C492.376471,48.9700323 494.007843,50.0908253 495.952941,51.0470263 C497.898039,52.0032273 500.203922,52.7556478 502.870588,53.3042877 C505.537255,53.8529276 508.627451,54.1272476 512.141176,54.1272476 C517.380392,54.1272476 521.694118,53.5315814 525.082353,52.340249 C528.470588,51.1489166 531.145098,49.5970493 533.105883,47.6846473 C535.066666,45.7722453 536.431373,43.6168741 537.199999,41.2185339 C537.968628,38.8201936 538.352941,36.4140157 538.352941,34 Z" id="Shape" fill="#9B9B9B"></path>
                <polygon id="Path" fill="#9B9B9B" points="633.082353 67 589.458824 22.342067 589.458824 67 572 67 572 2 590.964706 2 634.635294 46.8471616 634.635294 2 652 2 652 67"></polygon>
                <polygon id="Path" fill="#9B9B9B" points="673 67 673 2 738.342349 2 738.342349 15.8609898 690.897509 15.8609898 690.897509 26.5997089 735.899644 26.5997089 735.899644 40.4606987 690.897509 40.4606987 690.897509 53.1390102 739 53.1390102 739 67"></polygon>
                <polygon id="Path" fill="#EEEEEE" points="2 117 28.9702277 117 30 121.95 18.5744308 121.95 18.5744308 150 12.150613 150 12.150613 121.95 2 121.95"></polygon>
                <path d="M44.8215054,151 C40.8473118,151 37.7168459,149.872549 35.4301075,147.617647 C33.1433692,145.362745 32,142.339869 32,138.54902 C32,134.75817 33.0329749,131.718954 35.0989247,129.431373 C37.1648746,127.143791 39.9799283,126 43.544086,126 C47.1397849,126 49.781362,127.23366 51.4688172,129.70098 C53.1562724,132.168301 54,135.084967 54,138.45098 L54,140.411765 L38.5290323,140.411765 C38.8129032,141.980392 39.50681,143.230392 40.6107527,144.161765 C41.7146953,145.093137 43.1655914,145.558824 44.9634409,145.558824 C46.0043011,145.558824 46.9426523,145.419935 47.7784946,145.142157 C48.6143369,144.864379 49.5842294,144.464052 50.688172,143.941176 L52.4860215,148.54902 C51.4136201,149.398693 50.1125448,150.019608 48.5827957,150.411765 C47.0530466,150.803922 45.7992832,151 44.8215054,151 Z M48.1806452,136.147059 C47.865233,134.545752 47.297491,133.361111 46.4774194,132.593137 C45.6573477,131.825163 44.6322581,131.441176 43.4021505,131.441176 C42.1405018,131.441176 41.083871,131.841503 40.2322581,132.642157 C39.3806452,133.44281 38.8286738,134.611111 38.5763441,136.147059 L48.1806452,136.147059 Z" id="Shape" fill="#EEEEEE"></path>
                <path d="M70.184466,131.441176 C68.4045307,131.441176 67.012945,132.119281 66.0097087,133.47549 C65.0064725,134.831699 64.5048544,136.522876 64.5048544,138.54902 C64.5048544,140.607843 65.0064725,142.29085 66.0097087,143.598039 C67.012945,144.905229 68.4045307,145.558824 70.184466,145.558824 C71.2847896,145.558824 72.2799353,145.419935 73.1699029,145.142157 C74.0598706,144.864379 75.0711974,144.464052 76.2038835,143.941176 L78,148.54902 C76.8996764,149.398693 75.5647249,150.019608 73.9951456,150.411765 C72.4255663,150.803922 71.1391586,151 70.1359223,151 C66.3171521,151 63.3398058,149.872549 61.2038835,147.617647 C59.0679612,145.362745 58,142.339869 58,138.54902 C58,134.75817 59.0679612,131.718954 61.2038835,129.431373 C63.3398058,127.143791 66.3171521,126 70.1359223,126 C71.1391586,126 72.4093851,126.212418 73.9466019,126.637255 C75.4838188,127.062092 76.8349515,127.683007 78,128.5 L76.2038835,133.058824 C75.0711974,132.535948 74.0598706,132.135621 73.1699029,131.857843 C72.2799353,131.580065 71.2847896,131.441176 70.184466,131.441176 Z" id="Path" fill="#EEEEEE"></path>
                <path d="M89.1830065,128.184136 C90.2055192,127.381492 91.3798112,126.771483 92.7058824,126.354108 C94.0319535,125.936733 95.2222222,125.728045 96.2766885,125.728045 C99.4400871,125.728045 101.684822,126.659112 103.010893,128.521246 C104.336964,130.383381 105,132.66289 105,135.359773 L105,150 L98.7690632,150 L98.7690632,135.648725 C98.7690632,134.17186 98.4175744,133.040132 97.7145969,132.253541 C97.0116195,131.46695 95.97313,131.073654 94.5991285,131.073654 C93.7044299,131.073654 92.7777778,131.306421 91.8191721,131.771955 C90.8605664,132.237488 89.9818446,132.77526 89.1830065,133.385269 L89.1830065,150 L83,150 L83,116.529745 L89.1830065,116 L89.1830065,128.184136 Z" id="Path" fill="#EEEEEE"></path>
                <path d="M116.117391,129.380952 C117.169565,128.333333 118.484783,127.507937 120.063043,126.904762 C121.641304,126.301587 123.052174,126 124.295652,126 C127.452174,126 129.692029,126.920635 131.015217,128.761905 C132.338406,130.603175 133,132.857143 133,135.52381 L133,150 L126.782609,150 L126.782609,135.809524 C126.782609,134.349206 126.431884,133.230159 125.730435,132.452381 C125.028986,131.674603 124.008696,131.285714 122.669565,131.285714 C121.776812,131.285714 120.844203,131.515873 119.871739,131.97619 C118.899275,132.436508 118.014493,132.968254 117.217391,133.571429 L117.217391,150 L111,150 L111,126.904762 L114.252174,126.904762 L116.117391,129.380952 Z" id="Path" fill="#EEEEEE"></path>
                <path d="M149.573123,151 C145.936759,150.96732 143.098814,149.823529 141.059289,147.568627 C139.019763,145.313725 138,142.27451 138,138.45098 C138,134.660131 139.067194,131.637255 141.201581,129.382353 C143.335968,127.127451 146.252964,126 149.952569,126 C153.778656,126 156.743083,127.168301 158.84585,129.504902 C160.948617,131.841503 162,134.905229 162,138.696078 C162,142.486928 160.86166,145.477124 158.58498,147.666667 C156.3083,149.856209 153.304348,150.96732 149.573123,151 Z M155.644269,138.696078 C155.644269,136.441176 155.162055,134.668301 154.197628,133.377451 C153.233202,132.086601 151.865613,131.441176 150.094862,131.441176 C148.29249,131.441176 146.885375,132.013072 145.873518,133.156863 C144.86166,134.300654 144.355731,136.04902 144.355731,138.401961 C144.355731,140.754902 144.790514,142.535948 145.660079,143.745098 C146.529644,144.954248 147.865613,145.558824 149.667984,145.558824 C151.438735,145.558824 152.87747,145.011438 153.98419,143.916667 C155.090909,142.821895 155.644269,141.081699 155.644269,138.696078 Z" id="Shape" fill="#EEEEEE"></path>
                <polygon id="Path" fill="#EEEEEE" points="174 116 174 150 168 150 168 116.529745"></polygon>
                <path d="M191.573123,151 C187.936759,150.96732 185.098814,149.823529 183.059289,147.568627 C181.019763,145.313725 180,142.27451 180,138.45098 C180,134.660131 181.067194,131.637255 183.201581,129.382353 C185.335968,127.127451 188.252964,126 191.952569,126 C195.778656,126 198.743083,127.168301 200.84585,129.504902 C202.948617,131.841503 204,134.905229 204,138.696078 C204,142.486928 202.86166,145.477124 200.58498,147.666667 C198.3083,149.856209 195.304348,150.96732 191.573123,151 Z M197.644269,138.696078 C197.644269,136.441176 197.162055,134.668301 196.197628,133.377451 C195.233202,132.086601 193.865613,131.441176 192.094862,131.441176 C190.29249,131.441176 188.885375,132.013072 187.873518,133.156863 C186.86166,134.300654 186.355731,136.04902 186.355731,138.401961 C186.355731,140.754902 186.790514,142.535948 187.660079,143.745098 C188.529644,144.954248 189.865613,145.558824 191.667984,145.558824 C193.438735,145.558824 194.87747,145.011438 195.98419,143.916667 C197.090909,142.821895 197.644269,141.081699 197.644269,138.696078 Z" id="Shape" fill="#EEEEEE"></path>
                <path d="M220.16805,131.315493 C218.004841,131.315493 216.501729,132.08169 215.658714,133.614085 C214.815698,135.146479 214.394191,136.726761 214.394191,138.35493 C214.394191,140.174648 214.775934,141.802817 215.539419,143.239437 C216.302905,144.676056 217.845781,145.394366 220.16805,145.394366 C220.899723,145.394366 221.671162,145.226761 222.482365,144.891549 C223.293568,144.556338 224.049101,144.165258 224.748963,143.71831 L224.748963,132.991549 C224.049101,132.512676 223.293568,132.113615 222.482365,131.794366 C221.671162,131.475117 220.899723,131.315493 220.16805,131.315493 Z M231,126.909859 L231,150.087324 C231,152.896714 230.053596,155.251174 228.160788,157.150704 C226.267981,159.050235 223.26971,160 219.165975,160 C218.179806,160 216.748271,159.768545 214.871369,159.305634 C212.994467,158.842723 211.435685,158.196244 210.195021,157.366197 L212.056017,152.960563 C213.487552,153.662911 214.71231,154.173709 215.73029,154.492958 C216.748271,154.812207 217.845781,154.987793 219.022822,155.019718 C220.867911,154.987793 222.283541,154.532864 223.26971,153.65493 C224.255878,152.776995 224.748963,151.571831 224.748963,150.039437 L224.748963,148.842254 C223.762794,149.416901 222.713001,149.871831 221.599585,150.207042 C220.486169,150.542254 219.452282,150.709859 218.497925,150.709859 C215.125864,150.709859 212.533195,149.528638 210.719917,147.166197 C208.906639,144.803756 208,141.866667 208,138.35493 C208,134.843192 208.96231,131.906103 210.886929,129.543662 C212.811549,127.181221 215.443983,126 218.784232,126 C219.929461,126 221.217842,126.247418 222.649378,126.742254 C224.080913,127.237089 225.305671,127.931455 226.323651,128.825352 L227.755187,126.909859 L231,126.909859 Z" id="Shape" fill="#EEEEEE"></path>
                <path d="M240.452055,116 C241.442922,116 242.281963,116.34 242.969178,117.02 C243.656393,117.7 244,118.541905 244,119.545714 C244,120.549524 243.656393,121.391429 242.969178,122.071429 C242.281963,122.751429 241.442922,123.091429 240.452055,123.091429 C239.493151,123.091429 238.678082,122.751429 238.006849,122.071429 C237.335616,121.391429 237,120.549524 237,119.545714 C237,118.541905 237.335616,117.7 238.006849,117.02 C238.678082,116.34 239.493151,116 240.452055,116 Z M243.568493,126.442857 L243.568493,150 L237.335616,150 L237.335616,126.442857 L243.568493,126.442857 Z" id="Shape" fill="#EEEEEE"></path>
                <path d="M261.821505,151 C257.847312,151 254.716846,149.872549 252.430108,147.617647 C250.143369,145.362745 249,142.339869 249,138.54902 C249,134.75817 250.032975,131.718954 252.098925,129.431373 C254.164875,127.143791 256.979928,126 260.544086,126 C264.139785,126 266.781362,127.23366 268.468817,129.70098 C270.156272,132.168301 271,135.084967 271,138.45098 L271,140.411765 L255.529032,140.411765 C255.812903,141.980392 256.50681,143.230392 257.610753,144.161765 C258.714695,145.093137 260.165591,145.558824 261.963441,145.558824 C263.004301,145.558824 263.942652,145.419935 264.778495,145.142157 C265.614337,144.864379 266.584229,144.464052 267.688172,143.941176 L269.486022,148.54902 C268.41362,149.398693 267.112545,150.019608 265.582796,150.411765 C264.053047,150.803922 262.799283,151 261.821505,151 Z M265.180645,136.147059 C264.865233,134.545752 264.297491,133.361111 263.477419,132.593137 C262.657348,131.825163 261.632258,131.441176 260.402151,131.441176 C259.140502,131.441176 258.083871,131.841503 257.232258,132.642157 C256.380645,133.44281 255.828674,134.611111 255.576344,136.147059 L265.180645,136.147059 Z" id="Shape" fill="#EEEEEE"></path>
                <path d="M290.372973,133.058824 C289.237838,132.535948 288.183784,132.135621 287.210811,131.857843 C286.237838,131.580065 285.2,131.441176 284.097297,131.441176 C283.286486,131.441176 282.662162,131.596405 282.224324,131.906863 C281.786486,132.21732 281.567568,132.650327 281.567568,133.205882 C281.567568,133.598039 281.835135,133.973856 282.37027,134.333333 C282.905405,134.69281 283.772973,135.084967 284.972973,135.509804 C286.951351,136.228758 288.783784,137.23366 290.47027,138.52451 C292.156757,139.815359 293,141.490196 293,143.54902 C293,145.901961 292.164865,147.732026 290.494595,149.039216 C288.824324,150.346405 286.383784,151 283.172973,151 C282.167568,151 280.82973,150.803922 279.159459,150.411765 C277.489189,150.019608 276.102703,149.398693 275,148.54902 L276.897297,143.941176 C278.032432,144.464052 279.127027,144.864379 280.181081,145.142157 C281.235135,145.419935 282.2,145.558824 283.075676,145.558824 C284.243243,145.558824 285.135135,145.395425 285.751351,145.068627 C286.367568,144.74183 286.675676,144.316993 286.675676,143.794118 C286.675676,143.140523 286.367568,142.552288 285.751351,142.029412 C285.135135,141.506536 284.162162,141.03268 282.832432,140.607843 C280.951351,139.986928 279.175676,139.096405 277.505405,137.936275 C275.835135,136.776144 275,135.215686 275,133.254902 C275,131 275.827027,129.227124 277.481081,127.936275 C279.135135,126.645425 281.372973,126 284.194595,126 C285.2,126 286.497297,126.212418 288.086486,126.637255 C289.675676,127.062092 291.07027,127.683007 292.27027,128.5 L290.372973,133.058824 Z" id="Path" fill="#EEEEEE"></path>
            </g>
        </g>
    </g>
</svg>