<?xml version="1.0" encoding="UTF-8"?>
<svg width="80px" height="80px" viewBox="0 0 80 80" version="1.1" xmlns="http://www.w3.org/2000/svg" xmlns:xlink="http://www.w3.org/1999/xlink">
    <!-- Generator: Sketch 51.3 (57544) - http://www.bohemiancoding.com/sketch -->
    <title>Oval 7</title>
    <desc>Created with Sketch.</desc>
    <defs></defs>
    <g id="Page-1" stroke="none" stroke-width="1" fill="none" fill-rule="evenodd">
        <g id="Artboard-9" transform="translate(-446.000000, -143.000000)">
            <g id="data-classification" transform="translate(462.000000, 161.000000)">
                <g id="Group" transform="translate(39.500000, 21.500000) scale(-1, 1) rotate(-180.000000) translate(-39.500000, -21.500000) translate(31.000000, 0.000000)">
                    <polygon id="Rectangle" fill="#18E2CC" points="0.013653866 20.7074018 4.18572664 20.7040467 4.17238148 22.2889585 0 22.2983508"></polygon>
                    <polygon id="Shape" fill="#E9E9E9" fill-rule="nonzero" points="7.34495968 42.0401048 7.34495968 41.2501008 12.0868952 41.2501008 16.8288306 41.2501008 16.8288306 42.0401048 16.8288306 42.8301088 12.0868952 42.8301088 7.34495968 42.8301088"></polygon>
                    <polygon id="Shape" fill="#E9E9E9" fill-rule="nonzero" points="7.34495968 38.8800887 7.34495968 38.0900846 8.13528226 38.0900846 8.92560484 38.0900846 8.92560484 38.8800887 8.92560484 39.6700927 8.13528226 39.6700927 7.34495968 39.6700927"></polygon>
                    <polygon id="Shape" fill="#E9E9E9" fill-rule="nonzero" points="10.50625 38.8800887 10.50625 38.0900846 13.6675403 38.0900846 16.8288306 38.0900846 16.8288306 38.8800887 16.8288306 39.6700927 13.6675403 39.6700927 10.50625 39.6700927"></polygon>
                    <polygon id="Shape" fill="#E9E9E9" fill-rule="nonzero" points="7.34495968 35.7200726 7.34495968 34.9300685 12.0868952 34.9300685 16.8288306 34.9300685 16.8288306 35.7200726 16.8288306 36.5100766 12.0868952 36.5100766 7.34495968 36.5100766"></polygon>
                    <polygon id="Shape" fill="#E9E9E9" fill-rule="nonzero" points="7.34495968 24.6600161 7.34495968 23.8700121 12.0868952 23.8700121 16.8288306 23.8700121 16.8288306 24.6600161 16.8288306 25.4500202 12.0868952 25.4500202 7.34495968 25.4500202"></polygon>
                    <polygon id="Shape" fill="#E9E9E9" fill-rule="nonzero" points="7.34495968 21.5 7.34495968 20.709996 12.0868952 20.709996 16.8288306 20.709996 16.8288306 21.5 16.8288306 22.290004 12.0868952 22.290004 7.34495968 22.290004"></polygon>
                    <polygon id="Shape" fill="#E9E9E9" fill-rule="nonzero" points="7.34495968 18.3399839 7.34495968 17.5499798 10.50625 17.5499798 13.6675403 17.5499798 13.6675403 18.3399839 13.6675403 19.1299879 10.50625 19.1299879 7.34495968 19.1299879"></polygon>
                    <polygon id="Shape" fill="#E9E9E9" fill-rule="nonzero" points="15.2481855 18.3399839 15.2481855 17.5499798 16.0385081 17.5499798 16.8288306 17.5499798 16.8288306 18.3399839 16.8288306 19.1299879 16.0385081 19.1299879 15.2481855 19.1299879"></polygon>
                    <polygon id="Shape" fill="#E9E9E9" fill-rule="nonzero" points="7.34495968 7.27992745 7.34495968 6.48992342 12.0868952 6.48992342 16.8288306 6.48992342 16.8288306 7.27992745 16.8288306 8.06993148 12.0868952 8.06993148 7.34495968 8.06993148"></polygon>
                    <polygon id="Shape" fill="#E9E9E9" fill-rule="nonzero" points="7.34495968 4.11991133 7.34495968 3.3299073 10.50625 3.3299073 13.6675403 3.3299073 13.6675403 4.11991133 13.6675403 4.90991536 10.50625 4.90991536 7.34495968 4.90991536"></polygon>
                    <polygon id="Shape" fill="#E9E9E9" fill-rule="nonzero" points="15.2481855 4.11991133 15.2481855 3.3299073 16.0385081 3.3299073 16.8288306 3.3299073 16.8288306 4.11991133 16.8288306 4.90991536 16.0385081 4.90991536 15.2481855 4.90991536"></polygon>
                    <polygon id="Shape" fill="#E9E9E9" fill-rule="nonzero" points="7.34495968 0.959895204 7.34495968 0.169891173 12.0868952 0.169891173 16.8288306 0.169891173 16.8288306 0.959895204 16.8288306 1.74989923 12.0868952 1.74989923 7.34495968 1.74989923"></polygon>
                </g>
                <circle id="Oval" stroke="#18E2CC" stroke-width="2" cx="16" cy="21.5" r="15"></circle>
                <g id="car-_1_" transform="translate(8.200000, 15.900000)" fill="#E9E9E9" fill-rule="nonzero">
                    <g id="Group" transform="translate(8.000000, 5.000000) scale(-1, 1) rotate(-180.000000) translate(-8.000000, -5.000000) ">
                        <path d="M4.06413766,9.97036159 C3.75127102,9.91997629 3.45717638,9.72436277 3.29135706,9.45465323 C3.2506844,9.38944873 3.00664842,8.78186129 2.7469691,8.10610551 C2.49041846,7.43034973 2.26515448,6.84350919 2.24951115,6.80201541 C2.22448181,6.73384707 2.21822448,6.74273859 2.16816582,6.89685833 C2.08056316,7.1902786 2.08994916,7.18731476 1.14196324,7.18731476 C0.272193977,7.18731476 0.197105984,7.1754594 0.125146656,7.03319502 C-0.0312866641,6.72791938 -0.0406726633,6.31594547 0.103245991,5.96917605 C0.187719984,5.77356254 0.23464998,5.76467101 1.08251858,5.76467101 C1.49863121,5.76467101 1.83652718,5.75281565 1.83652718,5.74096028 C1.83652718,5.72614108 1.80211185,5.69946651 1.76143919,5.68168346 C1.61752053,5.6194428 1.43292921,5.43568465 1.37661322,5.29638411 C1.32342589,5.1659751 1.32029722,5 1.32029722,2.69709544 C1.32029722,0.400118554 1.32342589,0.231179609 1.37661322,0.160047421 C1.48611654,0.00296384114 1.51740321,0 2.58740712,0 C3.65741103,0 3.68869769,0.00296384114 3.79820102,0.160047421 C3.84825968,0.228215768 3.85451701,0.334914049 3.86390301,1.11736811 L3.87328901,2.00059277 L8,2.00059277 L12.126711,2.00059277 L12.136097,1.12033195 C12.145483,0.334914049 12.1517403,0.228215768 12.201799,0.160047421 C12.3113023,0.00296384114 12.342589,0 13.4125929,0 C14.4825968,0 14.5138835,0.00296384114 14.6233868,0.160047421 C14.6765741,0.231179609 14.6797028,0.400118554 14.6797028,2.69709544 C14.6797028,5 14.6765741,5.1659751 14.6233868,5.29638411 C14.5670708,5.43568465 14.3824795,5.6194428 14.2385608,5.68168346 C14.1978882,5.69946651 14.1634728,5.72614108 14.1634728,5.74096028 C14.1634728,5.75281565 14.5013688,5.76467101 14.9174814,5.76467101 C15.76535,5.76467101 15.81228,5.77356254 15.896754,5.96917605 C16.0406727,6.31594547 16.0312867,6.72791938 15.8748533,7.03319502 C15.802894,7.1754594 15.727806,7.18731476 14.8580368,7.18731476 C13.9100508,7.18731476 13.9194368,7.1902786 13.8318342,6.89685833 L13.7786469,6.72791938 L13.7411029,6.83165382 C13.2530309,8.12388856 12.7680876,9.36277416 12.7086429,9.45465323 C12.539695,9.72732662 12.2612436,9.91108477 11.9264763,9.97036159 C11.7012124,10.0088915 4.31755964,10.0088915 4.06413766,9.97036159 Z M12.1517403,7.2910492 C12.4489636,6.50859514 12.7023856,5.83876704 12.7117716,5.80320095 L12.7305436,5.7350326 L8.00312867,5.7350326 C5.06531091,5.7350326 3.27571373,5.74688797 3.27571373,5.76170717 C3.27571373,5.7854179 4.22995698,8.30764671 4.3676183,8.64848844 L4.40203363,8.72851215 L8.00312867,8.72258447 L11.6073524,8.71369295 L12.1517403,7.2910492 Z M4.90887759,4.67101363 C5.09972624,4.54653231 5.1685569,4.41908714 5.1685569,4.19087137 C5.1685569,4.0130409 5.1591709,3.98043865 5.07156824,3.87670421 C4.87446226,3.6455246 4.87446226,3.6455246 3.87016034,3.6455246 C3.37895972,3.6455246 2.94094642,3.65441612 2.89401643,3.66923533 C2.75948377,3.70480142 2.59679312,3.85595732 2.53734846,4.00118554 C2.42784513,4.27682276 2.54673445,4.54949615 2.8408291,4.69176052 C2.97536175,4.75696503 2.99413375,4.75992887 3.88893234,4.75103734 C4.78998827,4.74214582 4.79937427,4.74214582 4.90887759,4.67101363 Z M13.1622996,4.69176052 C13.4532655,4.54949615 13.5721549,4.27682276 13.4626515,4.00118554 C13.4032069,3.85595732 13.2405162,3.70480142 13.1059836,3.66923533 C13.0590536,3.65441612 12.6210403,3.6455246 12.1298397,3.6455246 C11.1255377,3.6455246 11.1255377,3.6455246 10.9284318,3.87670421 C10.8408291,3.98043865 10.8314431,4.0130409 10.8314431,4.19087137 C10.8314431,4.35388263 10.8439578,4.41019561 10.9096598,4.49614701 C10.9847478,4.59988145 11.1130231,4.69472436 11.2381697,4.7332543 C11.2725851,4.74214582 11.6886977,4.75103734 12.1611263,4.75400119 C12.9964803,4.75696503 13.0277669,4.75400119 13.1622996,4.69176052 Z" id="Shape"></path>
                    </g>
                </g>
                <polygon id="Rectangle-18" fill="#18E2CC" points="22.9972458 3.33364701 35.156181 3.32883494 35.1604671 4.91475517 24.0030429 4.90536865 23.0724034 7.44861794 21.629364 6.81503534"></polygon>
                <polygon id="Rectangle-18" fill="#18E2CC" transform="translate(28.394916, 37.588726) scale(1, -1) translate(-28.394916, -37.588726) " points="22.9972458 35.5336471 35.156181 35.528835 35.1604671 37.1147552 24.0030429 37.1053687 23.0724034 39.648618 21.629364 39.0150354"></polygon>
            </g>
            <circle id="Oval-7" cx="486" cy="183" r="40"></circle>
        </g>
    </g>
</svg>